<?xml version="1.0" encoding="UTF-8" standalone="no"?>
<!-- Generator: Adobe Illustrator 19.2.1, SVG Export Plug-In . SVG Version: 6.00 Build 0)  -->

<svg
   version="1.1"
   id="Слой_1"
   x="0px"
   y="0px"
   viewBox="0 0 123.6 98.8"
   style="enable-background:new 0 0 123.6 98.8;"
   xml:space="preserve"
   sodipodi:docname="air_baloon.svg"
   inkscape:version="1.1 (c68e22c387, 2021-05-23)"
   xmlns:inkscape="http://www.inkscape.org/namespaces/inkscape"
   xmlns:sodipodi="http://sodipodi.sourceforge.net/DTD/sodipodi-0.dtd"
   xmlns="http://www.w3.org/2000/svg"
   xmlns:svg="http://www.w3.org/2000/svg"
   xmlns:rdf="http://www.w3.org/1999/02/22-rdf-syntax-ns#"
   xmlns:cc="http://creativecommons.org/ns#"
   xmlns:dc="http://purl.org/dc/elements/1.1/"><defs
   id="defs900" /><sodipodi:namedview
   id="namedview898"
   pagecolor="#ffffff"
   bordercolor="#666666"
   borderopacity="1.0"
   inkscape:pageshadow="2"
   inkscape:pageopacity="0.0"
   inkscape:pagecheckerboard="0"
   showgrid="false"
   inkscape:zoom="4.579288"
   inkscape:cx="61.8"
   inkscape:cy="49.461838"
   inkscape:window-width="1366"
   inkscape:window-height="705"
   inkscape:window-x="-8"
   inkscape:window-y="-8"
   inkscape:window-maximized="1"
   inkscape:current-layer="Слой_1" />
<style
   type="text/css"
   id="style863">
	.st0{fill:#DD738C;}
	.st1{fill:#15173F;}
	.st2{fill:#2896E0;}
	.st3{opacity:0.3;}
</style>
<title
   id="title865">air_baloon</title>













<metadata
   id="metadata982"><rdf:RDF><cc:Work
       rdf:about=""><dc:title>air_baloon</dc:title></cc:Work></rdf:RDF></metadata><path
   class="cls-1"
   d="m 61.026461,59.791688 a 28.843762,29.026322 0 0 1 -28.744643,-25.664855 28.93297,29.116094 0 1 0 57.489285,0 28.843762,29.026322 0 0 1 -28.744642,25.664855 z"
   id="path2458"
   style="fill:#198754;stroke-width:0.994326;fill-opacity:1" /><path
   class="cls-2"
   d="M 61.026461,82.633708 A 1.9823891,1.9949362 0 0 1 59.044072,80.638772 V 8.471953 a 1.9823891,1.9949362 0 0 1 3.964778,0 v 72.166819 a 1.9823891,1.9949362 0 0 1 -1.982389,1.994936 z"
   id="path2460"
   style="fill:#198754;stroke-width:0.994326;fill-opacity:1" /><path
   class="cls-3"
   d="M 73.882254,82.633708 A 1.9823891,1.9949362 0 0 1 72.157576,79.641304 C 72.316167,79.352038 88.016689,51.063842 88.016689,37.318731 a 1.9823891,1.9949362 0 0 1 3.964778,0 c 0,14.782478 -15.660874,43.080648 -16.324974,44.27761 a 1.9823891,1.9949362 0 0 1 -1.774239,1.037367 z"
   id="path2462"
   style="fill:#198754;stroke-width:0.994326;fill-opacity:1" /><path
   class="cls-3"
   d="M 48.170667,82.633708 A 1.9823891,1.9949362 0 0 1 46.436077,81.63624 C 45.771976,80.419329 30.111102,52.121158 30.111102,37.338681 a 1.9823891,1.9949362 0 0 1 3.964778,0 c 0,13.755085 15.660875,42.043281 15.859114,42.322572 a 1.9823891,1.9949362 0 0 1 -1.724679,2.992404 z"
   id="path2464"
   style="fill:#198754;stroke-width:0.994326;fill-opacity:1" /><path
   class="cls-2"
   d="M 75.497902,44.141413 H 75.230279 A 1.9823891,1.9949362 0 0 1 73.525424,41.887135 C 75.071688,30.30653 71.959337,11.963092 71.929601,11.823446 a 1.9823891,1.9949362 0 1 1 3.905307,-0.678278 c 0.128855,0.778025 3.251118,19.09154 1.615647,31.2806 a 1.9823891,1.9949362 0 0 1 -1.952653,1.715645 z"
   id="path2466"
   style="fill:#198754;stroke-width:0.994326;fill-opacity:1" /><path
   class="cls-2"
   d="M 48.616705,64.998472 A 1.9823891,1.9949362 0 0 1 46.634316,63.342675 C 46.50546,62.564649 43.383197,44.251135 45.018668,32.062074 a 1.9997154,2.0123722 0 0 1 3.964779,0.528658 c -1.546264,11.59058 1.566087,29.924044 1.595823,30.06369 a 1.9823891,1.9949362 0 0 1 -1.635471,2.314126 z"
   id="path2468"
   style="fill:#198754;stroke-width:0.994326;fill-opacity:1" /><path
   class="cls-2"
   d="m 61.026461,68.200344 a 30.826151,31.021259 0 0 1 -30.915359,-30.861663 30.915359,31.111031 0 0 1 61.830718,0 30.826151,31.021259 0 0 1 -30.915359,30.861663 z m 0,-57.733455 a 26.861373,27.031386 0 0 0 -26.950581,26.871792 26.950581,27.121161 0 0 0 53.901161,0 26.861373,27.031386 0 0 0 -26.95058,-26.871792 z"
   id="path2470"
   style="fill:#198754;stroke-width:0.994326;fill-opacity:1" /><path
   class="cls-4"
   d="M 71.473652,92.259275 H 50.57927 A 1.9823891,1.9949362 0 0 1 48.656353,90.753099 L 46.24775,81.127531 a 1.9823891,1.9949362 0 0 1 1.922917,-2.483695 h 25.711587 a 1.9823891,1.9949362 0 0 1 1.922918,2.483695 l -2.408603,9.625568 a 1.9823891,1.9949362 0 0 1 -1.922917,1.506176 z M 52.125534,88.269403 h 17.841502 l 1.407496,-5.635695 H 50.708125 Z"
   id="path2472"
   style="fill:#198754;stroke-width:0.994326;fill-opacity:1" /><path
   class="cls-3"
   d="M 121.30101,31.693011 H 97.512333 a 1.9823891,1.9949362 0 0 1 0,-3.989872 h 23.788677 a 1.9823891,1.9949362 0 0 1 0,3.989872 z"
   id="path2474"
   style="fill:#198754;stroke-width:0.994326;fill-opacity:1" /><path
   class="cls-3"
   d="m 115.35384,31.693011 a 1.9823891,1.9949362 0 0 1 -1.98239,-1.994936 4.569407,4.598328 0 0 0 -9.1289,0 1.9823906,1.9949377 0 1 1 -3.96478,0 8.5341853,8.5882005 0 0 1 17.05846,0 1.9823891,1.9949362 0 0 1 -1.98239,1.994936 z"
   id="path2476"
   style="fill:#198754;stroke-width:0.994326;fill-opacity:1" /><path
   class="cls-3"
   d="m 109.60491,25.229418 a 1.9823891,1.9949362 0 0 1 -1.913,-1.456304 8.7522481,8.8076435 0 0 0 -13.757789,-4.588353 1.9825441,1.9950922 0 1 1 -2.418515,-3.161974 12.598083,12.67782 0 0 1 7.761053,-2.66324 12.726938,12.807491 0 0 1 12.241261,9.336302 1.9823891,1.9949362 0 0 1 -1.91301,2.533569 z"
   id="path2478"
   style="fill:#198754;stroke-width:0.994326;fill-opacity:1" /><path
   class="cls-3"
   d="M 12.477751,56.081107 H 2.3576541 a 1.9823894,1.9949365 0 0 1 0,-3.989873 H 12.477751 a 1.9823894,1.9949365 0 1 1 0,3.989873 z"
   id="path2480"
   style="fill:#198754;stroke-width:0.994326;fill-opacity:1" /><path
   class="cls-3"
   d="m 21.408414,56.081107 a 1.9823891,1.9949362 0 0 1 -1.982389,-1.994937 4.569407,4.598328 0 0 0 -9.128903,0 1.9823891,1.9949362 0 0 1 -3.9647776,0 8.5341853,8.5882005 0 0 1 17.0584586,0 1.9823891,1.9949362 0 0 1 -1.982389,1.994937 z"
   id="path2482"
   style="fill:#198754;stroke-width:0.994326;fill-opacity:1" /><path
   class="cls-3"
   d="m 14.05375,49.617513 a 1.9823891,1.9949362 0 0 1 -1.913006,-2.533569 12.726938,12.807491 0 0 1 12.241253,-9.336301 1.9823891,1.9949362 0 1 1 0,3.989872 8.7522481,8.8076435 0 0 0 -8.415242,6.41372 1.9823891,1.9949362 0 0 1 -1.913005,1.466278 z"
   id="path2484"
   style="fill:#198754;stroke-width:0.994326;fill-opacity:1" /></svg>
