<?xml version="1.0" encoding="UTF-8" standalone="no"?>
<!-- Generator: Adobe Illustrator 19.2.1, SVG Export Plug-In . SVG Version: 6.00 Build 0)  -->

<svg
   version="1.1"
   id="Слой_1"
   x="0px"
   y="0px"
   viewBox="0 0 123.6 98.8"
   style="enable-background:new 0 0 123.6 98.8;"
   xml:space="preserve"
   sodipodi:docname="documents.svg"
   inkscape:version="1.1 (c68e22c387, 2021-05-23)"
   xmlns:inkscape="http://www.inkscape.org/namespaces/inkscape"
   xmlns:sodipodi="http://sodipodi.sourceforge.net/DTD/sodipodi-0.dtd"
   xmlns="http://www.w3.org/2000/svg"
   xmlns:svg="http://www.w3.org/2000/svg"
   xmlns:rdf="http://www.w3.org/1999/02/22-rdf-syntax-ns#"
   xmlns:cc="http://creativecommons.org/ns#"
   xmlns:dc="http://purl.org/dc/elements/1.1/"><title
   id="title1742">documents</title><defs
   id="defs900" /><sodipodi:namedview
   id="namedview898"
   pagecolor="#ffffff"
   bordercolor="#666666"
   borderopacity="1.0"
   inkscape:pageshadow="2"
   inkscape:pageopacity="0.0"
   inkscape:pagecheckerboard="0"
   showgrid="false"
   inkscape:zoom="4.579288"
   inkscape:cx="61.8"
   inkscape:cy="49.243463"
   inkscape:window-width="1366"
   inkscape:window-height="705"
   inkscape:window-x="-8"
   inkscape:window-y="-8"
   inkscape:window-maximized="1"
   inkscape:current-layer="Слой_1" />
<style
   type="text/css"
   id="style863">
	.st0{fill:#DD738C;}
	.st1{fill:#15173F;}
	.st2{fill:#2896E0;}
	.st3{opacity:0.3;}
</style>














<metadata
   id="metadata982"><rdf:RDF><cc:Work
       rdf:about=""><dc:title>documents</dc:title></cc:Work></rdf:RDF></metadata><polygon
   class="cls-1"
   points="34.13,73 34.13,59.5 44.13,59.5 44.13,8 44.63,8 44.63,2 55.97,2 55.97,73 "
   id="polygon3014"
   style="fill:#198754;fill-opacity:1"
   transform="matrix(0.99576506,0,0,1.0067192,10.28023,0.34964702)" /><path
   class="cls-2"
   d="M 54.293046,61.618579 H 12.27176 A 1.9915301,2.0134384 0 0 1 10.28023,59.60514 V 2.4738246 a 1.9915301,2.0134384 0 0 1 1.99153,-2.01343846 h 42.021286 a 1.9915301,2.0134384 0 0 1 1.99153,2.01343846 V 59.60514 a 1.9915301,2.0134384 0 0 1 -1.99153,2.013439 z M 14.26329,57.591702 H 52.301516 V 4.487263 H 14.26329 Z"
   id="path3016"
   style="fill:#198754;stroke-width:1.00123;fill-opacity:1" /><path
   class="cls-3"
   d="m 33.282403,36.017709 c -7.159551,0 -12.944946,-5.607426 -12.944946,-12.493385 0,-6.88596 5.825226,-12.493386 12.944946,-12.493386 7.11972,0 12.944946,5.607426 12.944946,12.493386 0,6.885959 -5.785395,12.493385 -12.944946,12.493385 z m 0,-20.959894 c -4.978825,0 -8.961886,3.795332 -8.961886,8.466509 0,4.671177 4.032849,8.466508 8.961886,8.466508 4.929037,0 8.961886,-3.795331 8.961886,-8.466508 0,-4.671177 -4.002976,-8.466509 -8.961886,-8.466509 z"
   id="path3018"
   style="fill:#198754;stroke-width:1.00123;fill-opacity:1" /><path
   class="cls-3"
   d="m 33.282403,36.017709 c -4.122467,0 -5.97459,-6.473204 -5.97459,-12.493385 0,-6.020181 1.881996,-12.493386 5.97459,-12.493386 4.092594,0 5.97459,6.473205 5.97459,12.493386 0,6.020181 -1.842165,12.493385 -5.97459,12.493385 z m 0,-20.889424 c -0.667163,0.583898 -1.99153,3.483249 -1.99153,8.406106 0,4.922857 1.35424,7.822208 1.99153,8.406105 0.667163,-0.583897 1.99153,-3.483248 1.99153,-8.406105 0,-4.922857 -1.31441,-7.832276 -1.99153,-8.416173 z"
   id="path3020"
   style="fill:#198754;stroke-width:1.00123;fill-opacity:1" /><g
   class="cls-4"
   id="g3024"
   style="opacity:1;fill:#198754;fill-opacity:1"
   transform="matrix(0.99576506,0,0,1.0067192,10.28023,0.34964702)"><path
     class="cls-2"
     d="m 74.88,23.1 a 2,2 0 0 1 0,-4 l 14.68,-0.17 v 0 a 2,2 0 0 1 0,4 z"
     id="path3022"
     style="fill:#198754;fill-opacity:1" /></g><g
   class="cls-4"
   id="g3028"
   style="opacity:1;fill:#198754;fill-opacity:1"
   transform="matrix(0.99576506,0,0,1.0067192,10.28023,0.34964702)"><path
     class="cls-2"
     d="m 74.73,31.09 a 2,2 0 0 1 0,-4 l 14.68,-0.17 v 0 a 2,2 0 0 1 0,4 z"
     id="path3026"
     style="fill:#198754;fill-opacity:1" /></g><g
   class="cls-4"
   id="g3032"
   style="opacity:1;fill:#198754;fill-opacity:1"
   transform="matrix(0.99576506,0,0,1.0067192,10.28023,0.34964702)"><path
     class="cls-2"
     d="m 82,82.86 a 9.29,9.29 0 0 1 -6.68,-2.74 8.59,8.59 0 0 1 -2.51,-6.24 9.42,9.42 0 0 1 9.48,-9 9.22,9.22 0 0 1 6.71,2.74 8.59,8.59 0 0 1 2.51,6.24 9.42,9.42 0 0 1 -9.48,9 z m 0.36,-14 v 0 a 5.4,5.4 0 0 0 -5.55,5.14 4.62,4.62 0 0 0 1.36,3.35 5.55,5.55 0 0 0 9.38,-3.52 4.62,4.62 0 0 0 -1.36,-3.35 5.32,5.32 0 0 0 -3.84,-1.6 z"
     id="path3030"
     style="fill:#198754;fill-opacity:1" /></g><path
   class="cls-2"
   d="M 110.98195,98.504775 H 44.265692 a 1.9915301,2.0134384 0 0 1 -1.99153,-2.013442 V 60.249441 a 1.9915301,2.0134384 0 0 1 3.98306,0 V 94.477894 H 108.99042 V 4.3765239 H 44.265692 a 1.9915301,2.0134384 0 0 1 0,-4.02687688 h 66.716258 a 1.9915301,2.0134384 0 0 1 1.99153,2.01343848 V 96.491333 a 1.9915301,2.0134384 0 0 1 -1.99153,2.013442 z"
   id="path3034"
   style="fill:#198754;stroke-width:1.00123;fill-opacity:1" /></svg>
