<?xml version="1.0" encoding="UTF-8" standalone="no"?>
<!-- Generator: Adobe Illustrator 19.2.1, SVG Export Plug-In . SVG Version: 6.00 Build 0)  -->

<svg
   version="1.1"
   id="Слой_1"
   x="0px"
   y="0px"
   viewBox="0 0 123.6 98.8"
   style="enable-background:new 0 0 123.6 98.8;"
   xml:space="preserve"
   sodipodi:docname="exotic_food.svg"
   inkscape:version="1.1 (c68e22c387, 2021-05-23)"
   xmlns:inkscape="http://www.inkscape.org/namespaces/inkscape"
   xmlns:sodipodi="http://sodipodi.sourceforge.net/DTD/sodipodi-0.dtd"
   xmlns="http://www.w3.org/2000/svg"
   xmlns:svg="http://www.w3.org/2000/svg"
   xmlns:rdf="http://www.w3.org/1999/02/22-rdf-syntax-ns#"
   xmlns:cc="http://creativecommons.org/ns#"
   xmlns:dc="http://purl.org/dc/elements/1.1/"><title
   id="title1742">exotic_food</title><defs
   id="defs900" /><sodipodi:namedview
   id="namedview898"
   pagecolor="#ffffff"
   bordercolor="#666666"
   borderopacity="1.0"
   inkscape:pageshadow="2"
   inkscape:pageopacity="0.0"
   inkscape:pagecheckerboard="0"
   showgrid="false"
   inkscape:zoom="4.579288"
   inkscape:cx="61.8"
   inkscape:cy="49.243463"
   inkscape:window-width="1366"
   inkscape:window-height="705"
   inkscape:window-x="-8"
   inkscape:window-y="-8"
   inkscape:window-maximized="1"
   inkscape:current-layer="Слой_1" />
<style
   type="text/css"
   id="style863">
	.st0{fill:#DD738C;}
	.st1{fill:#15173F;}
	.st2{fill:#2896E0;}
	.st3{opacity:0.3;}
</style>














<metadata
   id="metadata982"><rdf:RDF><cc:Work
       rdf:about=""><dc:title>exotic_food</dc:title></cc:Work></rdf:RDF></metadata><path
   class="cls-1"
   d="m 86.208841,76.456779 a 1.6231466,1.58791 0 0 1 -1.144318,-0.468433 24.13619,23.612222 0 0 0 -12.83909,-6.677163 1.6231466,1.58791 0 0 1 -1.168665,-2.46126 C 79.286121,54.78181 85.892327,52.868379 86.622743,52.693708 a 1.6231466,1.58791 0 0 1 1.623147,0.460495 c 8.5134,9.011386 3.140789,18.896126 -0.892731,22.834143 a 1.6231466,1.58791 0 0 1 -1.144318,0.468433 z M 75.155213,66.675253 a 28.047973,27.439086 0 0 1 10.931893,5.899086 c 2.126322,-2.675628 6.289689,-9.52746 0.413901,-16.514262 -3.895551,1.579968 -8.659487,7.074136 -11.345794,10.615176 z"
   id="path2273"
   style="fill:#198754;stroke-width:0.802715;fill-opacity:1" /><path
   class="cls-2"
   d="m 72.412095,67.723273 c -2.43472,5.041615 -8.115733,11.115371 -17.854612,10.321416 -11.435067,-0.928927 -18.666185,-11.11537 -18.56068,-24.11241 0,0 4.569158,20.094997 22.066677,20.094997 A 20.289332,19.848876 0 0 0 72.5176,68.072614"
   id="path2275"
   style="fill:#198754;stroke-width:0.802715;fill-opacity:1" /><path
   class="cls-1"
   d="M 83.571228,35.417247 H 72.923387 a 1.6231467,1.5879101 0 0 1 0,-3.17582 h 10.647841 a 3.7007743,3.620435 0 0 0 0,-7.24087 H 38.68311 a 6.9551831,6.8041946 0 0 1 -6.947066,-6.796254 1.6231466,1.58791 0 0 1 3.246293,0 3.7088899,3.6283745 0 0 0 3.700773,3.620434 h 44.888118 a 6.9511255,6.800225 0 0 1 0,13.60045 z"
   id="path2277"
   style="fill:#198754;stroke-width:0.802715;fill-opacity:1" /><path
   class="cls-1"
   d="m 39.324253,63.753499 a 1.6231466,1.58791 0 0 1 -0.66549,-3.040848 L 54.500674,53.749669 39.454105,45.25435 a 1.6231466,1.58791 0 0 1 1.623146,-2.747084 l 17.789686,10.04353 a 1.6231466,1.58791 0 0 1 -0.146083,2.826481 l -18.731111,8.24125 a 1.6231466,1.58791 0 0 1 -0.66549,0.134972 z"
   id="path2279"
   style="fill:#198754;stroke-width:0.802715;fill-opacity:1" /><path
   class="cls-1"
   d="m 51.960448,74.710078 a 1.6231466,1.58791 0 0 1 -1.550104,-2.056343 l 6.094915,-19.221649 a 1.6235778,1.5883319 0 0 1 3.10021,0.944807 l -6.094915,19.221648 a 1.6231466,1.58791 0 0 1 -1.550106,1.111537 z"
   id="path2281"
   style="fill:#198754;stroke-width:0.802715;fill-opacity:1" /><ellipse
   class="cls-3"
   cx="66.804138"
   cy="41.649799"
   id="circle2283"
   style="fill:#198754;stroke-width:0.802715;fill-opacity:1"
   rx="2.6619604"
   ry="2.6041725" /><path
   class="cls-4"
   d="m 58.055364,75.615186 a 22.164066,21.682912 0 0 1 0,-43.365819 1.6231467,1.5879101 0 0 1 0,3.17582 18.917773,18.507091 0 1 0 12.173599,32.671246 L 56.911045,55.019996 a 1.6240492,1.5887931 0 0 1 2.296753,-2.246892 L 73.73496,66.984896 a 1.6231466,1.58791 0 0 1 0,2.246892 22.017983,21.54 0 0 1 -15.679596,6.383398 z"
   id="path2285"
   style="fill:#198754;stroke-width:0.802715;fill-opacity:1" /><path
   class="cls-1"
   d="M 61.861642,98.687522 A 50.374354,49.280789 0 0 1 11.5441,49.462312 49.806253,48.72502 0 0 1 16.851789,27.438 a 1.6241862,1.5889271 0 0 1 2.905433,1.421179 46.592422,45.580958 0 0 0 -4.966829,20.603133 47.07125,46.049391 0 1 0 93.184837,-9.305153 1.6234741,1.5882306 0 1 1 3.18137,-0.635165 50.358122,49.264909 0 0 1 -49.294958,59.165528 z"
   id="path2287"
   style="fill:#198754;stroke-width:0.802715;fill-opacity:1" /><path
   class="cls-1"
   d="M 88.489362,11.161921 A 1.6231466,1.58791 0 0 1 87.604747,10.899916 47.176755,46.152605 0 0 0 45.557136,6.24734 1.6231466,1.58791 0 0 1 44.437164,3.2700086 50.423048,49.328425 0 0 1 89.382093,8.2401668 1.6231466,1.58791 0 0 1 88.489362,11.153982 Z"
   id="path2289"
   style="fill:#198754;stroke-width:0.802715;fill-opacity:1" /><path
   class="cls-1"
   d="m 46.027848,85.714297 a 1.6231466,1.58791 0 0 1 -0.66549,-0.142912 40.465044,39.586597 0 0 1 -17.17289,-14.219737 1.6240239,1.5887683 0 1 1 2.702539,-1.76258 37.226866,36.418717 0 0 0 15.793215,13.092321 1.6231466,1.58791 0 0 1 -0.66549,3.040848 z"
   id="path2291"
   style="fill:#198754;stroke-width:0.802715;fill-opacity:1" /><path
   class="cls-1"
   d="m 61.861642,89.009211 a 40.81402,39.927998 0 0 1 -7.133729,-0.611346 1.6238364,1.5885849 0 0 1 0.568102,-3.128183 37.551496,36.736299 0 0 0 6.565627,0.563708 1.6231471,1.5879105 0 0 1 0,3.175821 z"
   id="path2293"
   style="fill:#198754;stroke-width:0.802715;fill-opacity:1" /><path
   class="cls-4"
   d="m 58.055364,55.520189 a 1.6231466,1.58791 0 0 1 -1.623147,-1.58791 V 33.829337 a 1.6231466,1.58791 0 0 1 1.623147,-1.58791 h 14.932948 a 6.5980908,6.4548543 0 0 1 6.370851,8.153918 C 75.301296,54.726234 58.258257,55.480491 58.112174,55.480491 Z M 59.67851,35.425187 v 16.736571 a 26.457289,25.882934 0 0 0 6.297809,-1.699063 c 5.380732,-2.215135 8.870496,-5.891146 10.258287,-10.916882 a 3.2462931,3.1758201 0 0 0 -0.576218,-2.786781 3.3436819,3.2710947 0 0 0 -2.678191,-1.302087 z"
   id="path2295"
   style="fill:#198754;stroke-width:0.802715;fill-opacity:1" /></svg>
