<?xml version="1.0" encoding="UTF-8" standalone="no"?>
<!-- Generator: Adobe Illustrator 19.2.1, SVG Export Plug-In . SVG Version: 6.00 Build 0)  -->

<svg
   version="1.1"
   id="Слой_1"
   x="0px"
   y="0px"
   viewBox="0 0 123.6 98.8"
   style="enable-background:new 0 0 123.6 98.8;"
   xml:space="preserve"
   sodipodi:docname="guide.svg"
   inkscape:version="1.1 (c68e22c387, 2021-05-23)"
   xmlns:inkscape="http://www.inkscape.org/namespaces/inkscape"
   xmlns:sodipodi="http://sodipodi.sourceforge.net/DTD/sodipodi-0.dtd"
   xmlns="http://www.w3.org/2000/svg"
   xmlns:svg="http://www.w3.org/2000/svg"
   xmlns:rdf="http://www.w3.org/1999/02/22-rdf-syntax-ns#"
   xmlns:cc="http://creativecommons.org/ns#"
   xmlns:dc="http://purl.org/dc/elements/1.1/"><title
   id="title1444">guide</title><defs
   id="defs900" /><sodipodi:namedview
   id="namedview898"
   pagecolor="#ffffff"
   bordercolor="#666666"
   borderopacity="1.0"
   inkscape:pageshadow="2"
   inkscape:pageopacity="0.0"
   inkscape:pagecheckerboard="0"
   showgrid="false"
   inkscape:zoom="4.579288"
   inkscape:cx="61.8"
   inkscape:cy="49.461838"
   inkscape:window-width="1366"
   inkscape:window-height="705"
   inkscape:window-x="-8"
   inkscape:window-y="-8"
   inkscape:window-maximized="1"
   inkscape:current-layer="Слой_1" />
<style
   type="text/css"
   id="style863">
	.st0{fill:#DD738C;}
	.st1{fill:#15173F;}
	.st2{fill:#2896E0;}
	.st3{opacity:0.3;}
</style>














<metadata
   id="metadata982"><rdf:RDF><cc:Work
       rdf:about=""><dc:title>guide</dc:title></cc:Work></rdf:RDF></metadata><path
   class="st0"
   d="m 39.204061,75.455893 c -7.686654,-0.09534 -15.278412,-2.192825 -21.9212,-6.006434 -0.948969,-0.476701 -1.23366,-1.716123 -0.759175,-2.574185 0.474484,-0.858062 1.708145,-1.239423 2.562218,-0.762722 21.921199,12.203552 39.002654,0.19068 39.097551,0.09534 0.854072,-0.572041 1.992836,-0.381361 2.657115,0.381361 0.664278,0.762722 0.379588,2.002145 -0.379588,2.669526 -6.358097,4.099629 -13.760061,6.292454 -21.256921,6.197114 z"
   id="path849"
   style="fill:#198754;stroke-width:0.951183;fill-opacity:1" /><path
   class="st0"
   d="m 84.754601,98.62356 c -1.043857,0 -1.897939,-0.858062 -1.897939,-1.906804 V 29.692591 c 0,-1.048743 0.854082,-1.906805 1.897939,-1.906805 1.043867,0 1.897939,0.858062 1.897939,1.906805 v 67.024165 c 0,1.048742 -0.854072,1.906804 -1.897939,1.906804 z"
   id="path851"
   style="fill:#198754;stroke-width:0.951183;fill-opacity:1" /><path
   class="st1"
   d="m 52.39474,62.203603 c 0,0 -9.869285,7.245856 -26.760945,-0.19068 0,0 3.131599,-3.527588 3.41629,-12.012867 6.358097,6.578475 15.183515,2.955547 19.928364,0.953402 0.569381,6.959836 0,7.627217 3.416291,11.250145 z"
   id="path853"
   style="fill:#198754;stroke-width:0.951183;fill-opacity:1" /><path
   class="st2"
   d="M 118.53792,31.599395 H 84.754601 c -1.043857,0 -1.897939,-0.858062 -1.897939,-1.906804 V 4.3320942 c 0,-1.0487423 0.854082,-1.9068042 1.897939,-1.9068042 h 33.783319 c 1.04387,0 1.89794,0.8580619 1.89794,1.9068042 0,0.3813609 -0.0949,0.6673815 -0.28468,0.9534021 l -6.83259,12.3942277 6.73768,10.964124 c 0.56938,0.858062 0.28469,2.097485 -0.66428,2.669526 -0.18979,0.190681 -0.47448,0.286021 -0.85407,0.286021 z M 86.65254,27.785786 h 28.46909 l -5.50401,-9.05732 c -0.37959,-0.572041 -0.37959,-1.334763 -0.0949,-1.906804 l 5.7887,-10.5827635 H 86.65254 Z"
   id="path855"
   style="fill:#198754;stroke-width:0.951183;fill-opacity:1" /><path
   class="st3"
   d="m 38.91937,44.184303 c -2.277527,0 -4.460157,-0.476701 -6.547891,-1.525443 -0.948969,-0.381361 -1.518351,-1.430104 -1.138763,-2.478846 0.379588,-1.048742 1.423454,-1.525443 2.467321,-1.144082 0.0949,0 0.189794,0.09534 0.379588,0.19068 4.934642,2.478845 9.964181,0 10.059078,0 0.94897,-0.476701 2.087734,-0.19068 2.562218,0.762722 0.474485,0.953402 0.189794,2.097484 -0.759175,2.574185 0,0 -0.0949,0 -0.0949,0.09534 -2.182631,0.953402 -4.555055,1.525443 -6.927479,1.525443 z"
   id="path857"
   style="fill:#198754;stroke-width:0.951183;fill-opacity:1;opacity:1" /><path
   class="st3"
   d="M 74.315934,81.557662 C 73.17718,73.453748 63.782376,68.114696 56.949794,64.110408 c -0.94897,-0.572042 -1.897939,-1.144083 -2.752012,-1.620784 -0.0949,0 -0.0949,-0.09534 -0.189794,-0.09534 10.438666,-2.097485 15.657995,-7.245857 15.847798,-7.531877 0.0949,-0.09534 0.189785,-0.190681 0.284682,-0.381361 0.569382,-0.858062 0.2847,-2.097485 -0.664269,-2.574186 C 63.877273,48.474613 59.227321,39.035932 57.803867,35.985045 58.94263,30.932013 59.512012,25.497621 59.512012,20.158569 59.606909,14.342816 57.044691,8.9084245 52.584533,5.2854963 48.788655,2.3299498 44.2336,0.70916615 39.583649,0.42314551 c -0.0949,0 -0.284691,0 -0.379588,0 -0.0949,0 -0.189794,0 -0.284691,0 -0.0949,0 -0.189794,0 -0.284691,0 -0.0949,0 -0.284691,0 -0.379588,0 -4.744848,0.19068043 -9.299903,1.90680429 -13.000884,4.86235079 -4.555055,3.6229282 -7.117273,9.1526607 -6.927479,14.8730727 0,5.243712 0.474485,10.678104 1.613248,15.635795 -1.423454,2.764866 -6.168303,12.584908 -11.957018,16.112496 -0.0949,0.09534 -0.189794,0.190681 -0.284691,0.286021 -0.759175,0.762722 -0.759175,1.906804 -0.0949,2.669526 0.284691,0.28602 5.409128,5.434392 15.942691,7.531877 0,0 -0.0949,0.09534 -0.0949,0.09534 -0.854072,0.476701 -1.803042,1.048742 -2.752012,1.620784 -6.927479,3.908948 -16.322278,9.34334 -17.461042,17.351913 -0.759176,5.148382 -0.759176,10.392093 0,15.540455 0.189794,0.953402 0.94897,1.620784 1.897939,1.620784 h 0.284691 c 0,0 0,0 0,0 1.043867,-0.190681 1.708146,-1.144083 1.518352,-2.192816 -0.664279,-4.76701 -0.664279,-9.629361 0,-14.396372 0.854072,-6.197118 9.299903,-11.059469 15.468206,-14.682397 1.043866,-0.572042 1.992836,-1.144083 2.846909,-1.620784 1.613248,-0.953402 2.752012,-2.192825 3.606084,-3.432248 0.0949,-0.09534 0.0949,-0.19068 0.189794,-0.19068 1.613249,-2.478846 1.992837,-5.339052 1.992837,-7.722557 1.992836,1.144082 4.36526,1.811464 6.927478,2.002144 0.0949,0 0.284691,0 0.379588,0 0.0949,0 0.189794,0 0.284691,0 0.0949,0 0.189794,0 0.284691,0 0.0949,0 0.284691,0 0.379588,0 2.562218,-0.19068 4.839745,-0.858062 6.927479,-1.906804 0,2.192825 0.379587,4.862351 1.803042,7.245856 0.0949,0.286021 0.284691,0.572041 0.474485,0.762722 0.854073,1.239423 1.992836,2.383505 3.511188,3.336907 0.948969,0.476701 1.897939,1.048743 2.846909,1.620784 6.168303,3.527588 14.614138,8.485279 15.468201,14.682397 0.664279,4.767011 0.664279,9.629352 0,14.396363 -0.189794,1.048742 0.569382,2.002145 1.518351,2.192825 h 0.284691 c 0.94897,0 1.708146,-0.667381 1.89794,-1.620784 0.948969,-5.243711 0.948969,-10.392083 0.28469,-15.540454 z m -8.92031,-27.934678 c -4.270363,2.860206 -9.110109,4.767011 -14.234545,5.434392 -1.423455,-3.146227 -0.854073,-6.864495 -0.664279,-7.817897 2.467321,-2.574186 4.365261,-6.006434 5.788715,-9.820042 1.803043,3.527588 4.934643,8.675959 9.110109,12.203547 z M 38.824473,52.574242 C 29.904158,52.383561 25.728691,44.088963 23.735855,35.889704 c 0,-0.28602 -0.0949,-0.572041 -0.189794,-0.762721 -0.474485,-2.192825 -0.854072,-4.38565 -1.043866,-6.387794 8.161139,-3.050887 15.563102,-7.817898 21.636508,-13.919672 2.467321,6.483135 7.876449,14.110352 10.533564,17.73328 -1.708146,9.15266 -5.788715,19.735424 -15.847794,20.021445 z M 55.716133,20.25391 c 0,1.239422 -0.0949,3.813608 -0.379587,6.864495 -2.941806,-4.194969 -7.022376,-10.678104 -8.350934,-15.445114 0.94897,-1.144083 1.89794,-2.2881655 2.846909,-3.5275882 3.511188,2.6695262 5.883612,6.6738142 5.883612,12.1082072 z M 38.824473,4.236754 c 2.752012,0 5.504024,0.6673815 7.971345,1.9068043 C 44.2336,9.5758059 35.78777,19.586528 22.122607,24.92558 c -0.0949,-2.097485 -0.189794,-3.813608 -0.189794,-4.767011 0,-10.2014022 8.635624,-15.7311346 16.89166,-15.921815 z M 21.363431,41.228756 c 1.423454,3.908949 3.321394,7.341197 5.788715,9.915383 0.189794,0.858061 0.759176,4.67167 -0.664279,7.913237 -5.124436,-0.667381 -10.059078,-2.478845 -14.329442,-5.434392 3.890776,-3.336907 7.117273,-8.580619 9.205006,-12.394228 z"
   id="path859"
   style="fill:#198754;stroke-width:0.951183;fill-opacity:1;opacity:1" /></svg>
