<?xml version="1.0" encoding="UTF-8" standalone="no"?>
<!-- Generator: Adobe Illustrator 19.2.1, SVG Export Plug-In . SVG Version: 6.00 Build 0)  -->

<svg
   version="1.1"
   id="Слой_1"
   x="0px"
   y="0px"
   viewBox="0 0 123.6 98.8"
   style="enable-background:new 0 0 123.6 98.8;"
   xml:space="preserve"
   sodipodi:docname="hotel.svg"
   inkscape:version="1.1 (c68e22c387, 2021-05-23)"
   xmlns:inkscape="http://www.inkscape.org/namespaces/inkscape"
   xmlns:sodipodi="http://sodipodi.sourceforge.net/DTD/sodipodi-0.dtd"
   xmlns="http://www.w3.org/2000/svg"
   xmlns:svg="http://www.w3.org/2000/svg"
   xmlns:rdf="http://www.w3.org/1999/02/22-rdf-syntax-ns#"
   xmlns:cc="http://creativecommons.org/ns#"
   xmlns:dc="http://purl.org/dc/elements/1.1/"><title
   id="title1274">hotel</title><defs
   id="defs900" /><sodipodi:namedview
   id="namedview898"
   pagecolor="#ffffff"
   bordercolor="#666666"
   borderopacity="1.0"
   inkscape:pageshadow="2"
   inkscape:pageopacity="0.0"
   inkscape:pagecheckerboard="0"
   showgrid="false"
   inkscape:zoom="4.579288"
   inkscape:cx="61.8"
   inkscape:cy="49.461838"
   inkscape:window-width="1366"
   inkscape:window-height="705"
   inkscape:window-x="-8"
   inkscape:window-y="-8"
   inkscape:window-maximized="1"
   inkscape:current-layer="Слой_1" />
<style
   type="text/css"
   id="style863">
	.st0{fill:#DD738C;}
	.st1{fill:#15173F;}
	.st2{fill:#2896E0;}
	.st3{opacity:0.3;}
</style>














<metadata
   id="metadata982"><rdf:RDF><cc:Work
       rdf:about=""><dc:title>hotel</dc:title></cc:Work></rdf:RDF></metadata><path
   class="cls-1"
   d="M 44.493847,98.686924 H 32.761275 A 1.7537479,1.587906 0 0 1 31.007527,97.099018 V 78.591974 a 7.6200345,6.899452 0 0 1 15.240068,0 v 18.507044 a 1.7537479,1.587906 0 0 1 -1.753748,1.587906 z M 34.515022,95.511111 H 42.7401 V 78.591974 a 4.1125391,3.7236401 0 0 0 -8.225078,0 z"
   id="path1430"
   style="fill:#198754;stroke-width:0.834384;fill-opacity:1" /><path
   class="cls-1"
   d="m 91.441678,98.686924 h -11.74134 a 1.7537479,1.587906 0 0 1 -1.75375,-1.587906 V 78.591974 a 7.620035,6.8994525 0 0 1 15.24007,0 v 18.507044 a 1.7537479,1.587906 0 0 1 -1.74498,1.587906 z m -9.97882,-3.175813 h 8.22507 V 78.591974 a 4.1125387,3.7236397 0 0 0 -8.22507,0 z"
   id="path1432"
   style="fill:#198754;stroke-width:0.834384;fill-opacity:1" /><path
   class="cls-2"
   d="m 61.768264,73.280428 a 9.3562445,8.4714787 0 0 0 -9.268558,8.550874 V 97.099018 H 71.036818 V 81.831302 a 9.3562445,8.4714787 0 0 0 -9.268554,-8.550874 z"
   id="path1434"
   style="fill:#198754;stroke-width:0.834384;fill-opacity:1" /><path
   class="cls-3"
   d="M 101.15745,98.686924 H 22.238788 A 1.7537479,1.587906 0 0 1 20.485039,97.099018 V 14.813726 a 1.7537479,1.587906 0 0 1 1.753749,-1.587905 h 78.918662 a 1.7537479,1.587906 0 0 1 1.75374,1.587905 v 82.285292 a 1.7537479,1.587906 0 0 1 -1.75374,1.587906 z M 23.992535,95.511111 h 75.41115 V 16.401632 h -75.41115 z"
   id="path1436"
   style="fill:#198754;stroke-width:0.834384;fill-opacity:1" /><path
   class="cls-4"
   d="M 88.276158,16.401632 H 35.120065 A 1.7537479,1.587906 0 0 1 33.366318,14.813726 V 1.8246552 a 1.7537479,1.587906 0 0 1 1.753747,-1.58790607 h 53.156093 a 1.7537479,1.587906 0 0 1 1.75376,1.58790607 V 14.813726 a 1.7537479,1.587906 0 0 1 -1.75376,1.587906 z M 36.882582,13.225821 H 86.522418 V 3.4125613 H 36.873813 Z"
   id="path1438"
   style="fill:#198754;stroke-width:0.834384;fill-opacity:1" /><path
   class="cls-3"
   d="M 71.036818,98.686924 H 52.508475 A 1.7537479,1.587906 0 0 1 50.754728,97.099018 V 81.831302 a 11.022305,9.9799893 0 1 1 22.03584,0 v 15.267716 a 1.7537479,1.587906 0 0 1 -1.75375,1.587906 z M 54.262223,95.511111 h 15.02085 V 81.831302 a 7.5148095,6.8041775 0 1 0 -15.02085,0 z"
   id="path1440"
   style="fill:#198754;stroke-width:0.834384;fill-opacity:1" /><path
   class="cls-1"
   d="m 67.967762,48.278847 a 1.7537479,1.587906 0 0 1 -1.753747,-1.587906 v -5.486215 a 1.7537479,1.587906 0 0 1 3.507495,0 v 5.486216 a 1.7537479,1.587906 0 0 1 -1.753748,1.587905 z"
   id="path1442"
   style="fill:#198754;stroke-width:0.834384;fill-opacity:1" /><path
   class="cls-1"
   d="m 56.235189,48.278847 a 1.7537479,1.587906 0 0 1 -1.753748,-1.587906 v -5.486215 a 1.7537482,1.5879063 0 0 1 3.507496,0 v 5.486216 a 1.7537479,1.587906 0 0 1 -1.753748,1.587905 z"
   id="path1444"
   style="fill:#198754;stroke-width:0.834384;fill-opacity:1" /><path
   class="cls-1"
   d="m 67.967762,32.264815 a 1.7537479,1.587906 0 0 1 -1.753747,-1.587906 v -5.033663 a 1.7537479,1.587906 0 0 1 3.507495,0 v 5.033663 a 1.7537479,1.587906 0 0 1 -1.753748,1.587906 z"
   id="path1446"
   style="fill:#198754;stroke-width:0.834384;fill-opacity:1" /><path
   class="cls-1"
   d="m 56.235189,32.264815 a 1.7537479,1.587906 0 0 1 -1.753748,-1.587906 v -5.033663 a 1.7537482,1.5879063 0 1 1 3.507496,0 v 5.033663 a 1.7537479,1.587906 0 0 1 -1.753748,1.587906 z"
   id="path1448"
   style="fill:#198754;stroke-width:0.834384;fill-opacity:1" /><path
   class="cls-1"
   d="m 91.441678,48.278847 a 1.7537479,1.587906 0 0 1 -1.75375,-1.587906 v -5.486215 a 1.75375,1.5879079 0 0 1 3.5075,0 v 5.486216 a 1.7537479,1.587906 0 0 1 -1.75375,1.587905 z"
   id="path1450"
   style="fill:#198754;stroke-width:0.834384;fill-opacity:1" /><path
   class="cls-1"
   d="m 79.700338,48.278847 a 1.7537479,1.587906 0 0 1 -1.75375,-1.587906 v -5.486215 a 1.7537482,1.5879063 0 0 1 3.50749,0 v 5.486216 a 1.7537479,1.587906 0 0 1 -1.75374,1.587905 z"
   id="path1452"
   style="fill:#198754;stroke-width:0.834384;fill-opacity:1" /><path
   class="cls-1"
   d="m 91.441678,32.264815 a 1.7537479,1.587906 0 0 1 -1.75375,-1.587906 v -5.033663 a 1.75375,1.5879079 0 0 1 3.5075,0 v 5.033663 a 1.7537479,1.587906 0 0 1 -1.75375,1.587906 z"
   id="path1454"
   style="fill:#198754;stroke-width:0.834384;fill-opacity:1" /><path
   class="cls-1"
   d="m 79.700338,32.264815 a 1.7537479,1.587906 0 0 1 -1.75375,-1.587906 v -5.033663 a 1.7537482,1.5879063 0 0 1 3.50749,0 v 5.033663 a 1.7537479,1.587906 0 0 1 -1.75374,1.587906 z"
   id="path1456"
   style="fill:#198754;stroke-width:0.834384;fill-opacity:1" /><path
   class="cls-1"
   d="M 44.493847,48.278847 A 1.7537479,1.587906 0 0 1 42.7401,46.690941 v -5.486215 a 1.7537479,1.587906 0 0 1 3.507495,0 v 5.486216 a 1.7537479,1.587906 0 0 1 -1.753748,1.587905 z"
   id="path1458"
   style="fill:#198754;stroke-width:0.834384;fill-opacity:1" /><path
   class="cls-1"
   d="m 32.761275,48.278847 a 1.7537479,1.587906 0 0 1 -1.753748,-1.587906 v -5.486215 a 1.7537479,1.587906 0 0 1 3.507495,0 v 5.486216 a 1.7537479,1.587906 0 0 1 -1.753747,1.587905 z"
   id="path1460"
   style="fill:#198754;stroke-width:0.834384;fill-opacity:1" /><path
   class="cls-1"
   d="m 67.967762,64.546944 a 1.7537479,1.587906 0 0 1 -1.753747,-1.587906 v -5.486215 a 1.7537479,1.587906 0 0 1 3.507495,0 v 5.486215 a 1.7537479,1.587906 0 0 1 -1.753748,1.587906 z"
   id="path1462"
   style="fill:#198754;stroke-width:0.834384;fill-opacity:1" /><path
   class="cls-1"
   d="m 56.235189,64.546944 a 1.7537479,1.587906 0 0 1 -1.753748,-1.587906 v -5.486215 a 1.7537482,1.5879063 0 0 1 3.507496,0 v 5.486215 a 1.7537479,1.587906 0 0 1 -1.753748,1.587906 z"
   id="path1464"
   style="fill:#198754;stroke-width:0.834384;fill-opacity:1" /><path
   class="cls-1"
   d="m 91.441678,64.546944 a 1.7537479,1.587906 0 0 1 -1.75375,-1.587906 v -5.486215 a 1.75375,1.5879079 0 0 1 3.5075,0 v 5.486215 a 1.7537479,1.587906 0 0 1 -1.75375,1.587906 z"
   id="path1466"
   style="fill:#198754;stroke-width:0.834384;fill-opacity:1" /><path
   class="cls-1"
   d="m 79.700338,64.546944 a 1.7537479,1.587906 0 0 1 -1.75375,-1.587906 v -5.486215 a 1.7537482,1.5879063 0 0 1 3.50749,0 v 5.486215 a 1.7537479,1.587906 0 0 1 -1.75374,1.587906 z"
   id="path1468"
   style="fill:#198754;stroke-width:0.834384;fill-opacity:1" /><path
   class="cls-1"
   d="M 44.493847,64.546944 A 1.7537479,1.587906 0 0 1 42.7401,62.959038 v -5.486215 a 1.7537479,1.587906 0 0 1 3.507495,0 v 5.486215 a 1.7537479,1.587906 0 0 1 -1.753748,1.587906 z"
   id="path1470"
   style="fill:#198754;stroke-width:0.834384;fill-opacity:1" /><path
   class="cls-1"
   d="m 32.761275,64.546944 a 1.7537479,1.587906 0 0 1 -1.753748,-1.587906 v -5.486215 a 1.7537479,1.587906 0 0 1 3.507495,0 v 5.486215 a 1.7537479,1.587906 0 0 1 -1.753747,1.587906 z"
   id="path1472"
   style="fill:#198754;stroke-width:0.834384;fill-opacity:1" /><path
   class="cls-1"
   d="M 44.493847,32.264815 A 1.7537479,1.587906 0 0 1 42.7401,30.676909 v -5.033663 a 1.7537479,1.587906 0 0 1 3.507495,0 v 5.033663 a 1.7537479,1.587906 0 0 1 -1.753748,1.587906 z"
   id="path1474"
   style="fill:#198754;stroke-width:0.834384;fill-opacity:1" /><path
   class="cls-1"
   d="m 32.761275,32.264815 a 1.7537479,1.587906 0 0 1 -1.753748,-1.587906 v -5.033663 a 1.7537479,1.587906 0 0 1 3.507495,0 v 5.033663 a 1.7537479,1.587906 0 0 1 -1.753747,1.587906 z"
   id="path1476"
   style="fill:#198754;stroke-width:0.834384;fill-opacity:1" /><path
   class="cls-4"
   d="M 76.999558,9.9070974 H 46.396664 a 1.7537481,1.5879062 0 1 1 0,-3.1758124 h 30.602894 a 1.7537481,1.5879062 0 1 1 0,3.1758124 z"
   id="path1478"
   style="fill:#198754;stroke-width:0.834384;fill-opacity:1" /></svg>
