<?xml version="1.0" encoding="UTF-8" standalone="no"?>
<!-- Generator: Adobe Illustrator 19.2.1, SVG Export Plug-In . SVG Version: 6.00 Build 0)  -->

<svg
   version="1.1"
   id="Слой_1"
   x="0px"
   y="0px"
   viewBox="0 0 123.6 98.8"
   style="enable-background:new 0 0 123.6 98.8;"
   xml:space="preserve"
   sodipodi:docname="tickets.svg"
   inkscape:version="1.1 (c68e22c387, 2021-05-23)"
   xmlns:inkscape="http://www.inkscape.org/namespaces/inkscape"
   xmlns:sodipodi="http://sodipodi.sourceforge.net/DTD/sodipodi-0.dtd"
   xmlns="http://www.w3.org/2000/svg"
   xmlns:svg="http://www.w3.org/2000/svg"
   xmlns:rdf="http://www.w3.org/1999/02/22-rdf-syntax-ns#"
   xmlns:cc="http://creativecommons.org/ns#"
   xmlns:dc="http://purl.org/dc/elements/1.1/"><title
   id="title1742">tickets</title><defs
   id="defs900" /><sodipodi:namedview
   id="namedview898"
   pagecolor="#ffffff"
   bordercolor="#666666"
   borderopacity="1.0"
   inkscape:pageshadow="2"
   inkscape:pageopacity="0.0"
   inkscape:pagecheckerboard="0"
   showgrid="false"
   inkscape:zoom="4.579288"
   inkscape:cx="61.8"
   inkscape:cy="49.243463"
   inkscape:window-width="1366"
   inkscape:window-height="705"
   inkscape:window-x="-8"
   inkscape:window-y="-8"
   inkscape:window-maximized="1"
   inkscape:current-layer="Слой_1" />
<style
   type="text/css"
   id="style863">
	.st0{fill:#DD738C;}
	.st1{fill:#15173F;}
	.st2{fill:#2896E0;}
	.st3{opacity:0.3;}
</style>














<metadata
   id="metadata982"><rdf:RDF><cc:Work
       rdf:about=""><dc:title>tickets</dc:title></cc:Work></rdf:RDF></metadata><g
   class="st0"
   id="g1471"
   style="opacity:1;fill:#198754;fill-opacity:1"
   transform="matrix(0.99119635,0,0,0.98984304,0.40799482,6.5710249)"><path
     class="st1"
     d="m 42.2,28.5 c -1.1,0 -2,-0.9 -2,-2 0,-0.5 0.2,-1 0.6,-1.4 l 5.9,-6 c 0.8,-0.8 2,-0.8 2.8,0 0.8,0.8 0.8,2 0,2.8 l -5.9,6 c -0.3,0.4 -0.8,0.6 -1.4,0.6 z"
     id="path1469"
     style="fill:#198754;fill-opacity:1" /></g><g
   class="st0"
   id="g1475"
   style="opacity:1;fill:#198754;fill-opacity:1"
   transform="matrix(0.99119635,0,0,0.98984304,0.40799482,6.5710249)"><path
     class="st1"
     d="m 19.2,51.9 c -1.1,0 -2,-0.9 -2,-2 0,-0.5 0.2,-1 0.6,-1.4 l 5.9,-6 c 0.8,-0.8 2,-0.8 2.8,0 0.8,0.8 0.8,2 0,2.8 l -5.9,6 c -0.4,0.3 -0.9,0.6 -1.4,0.6 z"
     id="path1473"
     style="fill:#198754;fill-opacity:1" /></g><g
   class="st0"
   id="g1479"
   style="opacity:1;fill:#198754;fill-opacity:1"
   transform="matrix(0.99119635,0,0,0.98984304,0.40799482,6.5710249)"><path
     class="st1"
     d="m 31,39.9 c -1.1,0 -2,-0.9 -2,-2 0,-0.5 0.2,-1 0.6,-1.4 l 5.9,-6 c 0.8,-0.8 2,-0.8 2.8,0 0.8,0.8 0.8,2 0,2.8 v 0 l -5.9,6 c -0.3,0.4 -0.9,0.6 -1.4,0.6 z"
     id="path1477"
     style="fill:#198754;fill-opacity:1" /></g><g
   class="st0"
   id="g1483"
   style="opacity:1;fill:#198754;fill-opacity:1"
   transform="matrix(0.99119635,0,0,0.98984304,0.40799482,6.5710249)"><path
     class="st1"
     d="m 104.1,51.5 c -0.5,0 -1,-0.2 -1.4,-0.6 l -5.9,-6 c -0.8,-0.7 -1,-2 -0.2,-2.8 0.7,-0.8 2,-1 2.8,-0.2 0.1,0.1 0.2,0.2 0.3,0.3 l 5.9,6 c 0.8,0.8 0.8,2 0,2.8 -0.5,0.3 -1,0.5 -1.5,0.5 z"
     id="path1481"
     style="fill:#198754;fill-opacity:1" /></g><g
   class="st0"
   id="g1487"
   style="opacity:1;fill:#198754;fill-opacity:1"
   transform="matrix(0.99119635,0,0,0.98984304,0.40799482,6.5710249)"><path
     class="st1"
     d="m 81,28.1 c -0.5,0 -1,-0.2 -1.4,-0.6 l -5.9,-6 c -0.8,-0.8 -0.8,-2.1 0,-2.8 0.8,-0.8 2.1,-0.8 2.8,0 l 5.9,6 c 0.8,0.8 0.8,2.1 0,2.8 -0.4,0.4 -0.9,0.6 -1.4,0.6 z"
     id="path1485"
     style="fill:#198754;fill-opacity:1" /></g><g
   class="st0"
   id="g1491"
   style="opacity:1;fill:#198754;fill-opacity:1"
   transform="matrix(0.99119635,0,0,0.98984304,0.40799482,6.5710249)"><path
     class="st1"
     d="m 92.8,40.1 c -0.5,0 -1,-0.2 -1.4,-0.6 l -5.9,-6 c -0.8,-0.8 -0.8,-2.1 0,-2.8 0.8,-0.8 2.1,-0.8 2.8,0 v 0 l 5.9,6 c 0.8,0.8 0.8,2 0,2.8 -0.3,0.4 -0.9,0.6 -1.4,0.6 z"
     id="path1489"
     style="fill:#198754;fill-opacity:1" /></g><polygon
   class="st2"
   points="26,56.7 41,71.4 49.3,63 41,54.5 61.4,33.8 54.6,27.6 "
   id="polygon1493"
   style="fill:#198754;fill-opacity:1"
   transform="matrix(0.99119635,0,0,0.98984304,0.40799482,6.5710249)" /><path
   class="st1"
   d="m 122.82074,36.167332 -7.43397,-7.522807 c -0.79296,-0.791875 -2.08151,-0.791875 -2.87447,0 0,0 -0.0991,0.09898 -0.0991,0.09898 -3.07271,2.969529 -7.92957,2.969529 -10.90316,-0.09898 -3.072704,-3.068514 -3.072704,-8.116713 0,-11.185227 0.79296,-0.791874 0.79296,-1.979686 0,-2.77156 L 94.076052,7.1649307 c -0.792957,-0.7918744 -2.081513,-0.7918744 -2.87447,0 L 61.36657,37.256159 32.522757,8.2537581 C 32.126278,7.8578209 31.63068,7.6598522 31.135082,7.6598522 c -0.495599,0 -1.090316,0.1979687 -1.486795,0.5939059 l -7.433973,7.5228069 c -0.792957,0.791875 -0.792957,1.979686 0,2.771561 3.072709,3.068513 3.072709,8.116713 0,11.185226 0,0 -0.09912,0.09898 -0.09912,0.09898 -3.072709,2.969529 -7.929571,2.969529 -10.90316,-0.09898 -0.792957,-0.791874 -2.0815123,-0.791874 -2.7753498,0 l -7.4339726,7.522807 c -0.79295705,0.791875 -0.79295705,1.979686 0,2.771561 L 39.362011,78.829567 c 0.396479,0.395938 0.892077,0.593907 1.387675,0.593907 0.495598,0 0.991197,-0.197969 1.387675,-0.593907 l 7.136614,-7.225854 19.130089,19.400925 c 0.396479,0.494921 0.892077,0.69289 1.387675,0.69289 0.495598,0 1.090316,-0.197969 1.486795,-0.593906 L 122.82074,38.938893 c 0.69384,-0.692891 0.69384,-1.979687 0,-2.771561 z M 40.749686,74.672226 5.1657373,38.740924 9.9234798,33.890693 c 4.6586232,3.365466 11.1013992,2.870545 15.1653042,-1.286796 4.063905,-4.157341 4.559503,-10.492336 1.288555,-15.243583 L 31.135082,12.510083 58.59122,40.126704 39.65937,59.230675 c -0.792957,0.791874 -0.792957,1.979686 0,2.77156 l 6.740135,6.928902 z M 69.791739,86.847297 50.760769,67.644341 c 0,-0.09898 -0.09912,-0.09898 -0.09912,-0.197969 0,0 -0.09912,-0.09898 -0.09912,-0.09898 L 43.921515,60.616455 92.589257,11.322272 97.347,16.172503 c -3.270948,4.751246 -2.77535,11.086242 1.189435,15.243582 2.180625,2.276639 5.154215,3.464451 8.326045,3.464451 2.47799,0 4.85686,-0.791874 6.83926,-2.177655 l 4.75774,4.850231 z"
   id="path1495"
   style="fill:#198754;stroke-width:0.990519;fill-opacity:1" /><path
   class="st3"
   d="m 69.296141,79.32449 c -1.090316,0 -1.982393,-0.89086 -1.982393,-1.979687 0,-0.494922 0.19824,-0.989843 0.594718,-1.385781 L 84.362328,59.329659 c 0.693837,-0.890859 1.883273,-0.989843 2.775349,-0.395937 0.892077,0.69289 0.991197,1.880702 0.396479,2.771561 -0.09912,0.09898 -0.198239,0.197968 -0.297359,0.296952 L 70.683816,78.730583 c -0.396479,0.395938 -0.892077,0.593907 -1.387675,0.593907 z"
   id="path1497"
   style="fill:#198754;stroke-width:0.990519;fill-opacity:1;opacity:1" /><path
   class="st3"
   d="m 63.943681,73.880352 c -1.090316,0 -1.982393,-0.890859 -1.982393,-1.979686 0,-0.494922 0.198239,-0.989843 0.594718,-1.38578 l 8.02869,-8.017729 c 0.792957,-0.791874 2.081513,-0.791874 2.77535,0 0.792957,0.791874 0.792957,2.07867 0,2.771561 l -8.02869,8.017728 c -0.297359,0.395937 -0.792957,0.593906 -1.387675,0.593906 z"
   id="path1499"
   style="fill:#198754;stroke-width:0.990519;fill-opacity:1;opacity:1" /></svg>
