<?xml version="1.0" encoding="UTF-8" standalone="no"?>
<svg
   version="1.1"
   width="232.18695"
   height="210.40793"
   viewBox="0 0 232.18695 210.40793"
   xml:space="preserve"
   id="svg904"
   sodipodi:docname="loud-speaker.svg"
   inkscape:version="1.3.2 (091e20e, 2023-11-25, custom)"
   xmlns:inkscape="http://www.inkscape.org/namespaces/inkscape"
   xmlns:sodipodi="http://sodipodi.sourceforge.net/DTD/sodipodi-0.dtd"
   xmlns="http://www.w3.org/2000/svg"
   xmlns:svg="http://www.w3.org/2000/svg"><sodipodi:namedview
   id="namedview906"
   pagecolor="#ffffff"
   bordercolor="#666666"
   borderopacity="1.0"
   inkscape:pageshadow="2"
   inkscape:pageopacity="0.0"
   inkscape:pagecheckerboard="0"
   showgrid="false"
   fit-margin-top="0"
   fit-margin-left="0"
   fit-margin-right="0"
   fit-margin-bottom="0"
   inkscape:zoom="1.9414062"
   inkscape:cx="106.62375"
   inkscape:cy="123.87928"
   inkscape:window-width="1366"
   inkscape:window-height="705"
   inkscape:window-x="-8"
   inkscape:window-y="-8"
   inkscape:window-maximized="1"
   inkscape:current-layer="svg904"
   inkscape:showpageshadow="2"
   inkscape:deskcolor="#d1d1d1" />
<desc
   id="desc866">Created with Fabric.js 1.7.22</desc>
<defs
   id="defs868">
</defs>

<g
   style="fill:none;fill-rule:nonzero;stroke:none;stroke-width:0;stroke-linecap:butt;stroke-linejoin:miter;stroke-miterlimit:10;stroke-dasharray:none"
   transform="matrix(3.4176298,0,0,3.4176298,13.973981,-98.123924)"
   id="g9">
	<circle
   cx="42.898998"
   cy="43.199001"
   r="13.609"
   style="opacity:1;fill:#198754;fill-rule:nonzero;stroke:none;stroke-width:1;stroke-linecap:butt;stroke-linejoin:miter;stroke-miterlimit:10;stroke-dasharray:none"
   id="circle1" />
	<path
   d="m 40.978,89.999 c -1.145,0 -2.219,-0.443 -3.024,-1.249 L 27.738,78.534 c -0.391,-0.391 -0.391,-1.023 0,-1.414 0.391,-0.391 1.023,-0.391 1.414,0 l 10.216,10.216 c 0.855,0.855 2.365,0.856 3.219,0 0.428,-0.428 0.663,-0.999 0.663,-1.609 0,-0.611 -0.236,-1.183 -0.663,-1.61 l -9.112,-9.111 c -0.391,-0.391 -0.391,-1.023 0,-1.414 0.391,-0.391 1.023,-0.391 1.414,0 l 9.112,9.111 c 0.805,0.805 1.249,1.879 1.249,3.024 0,1.145 -0.444,2.219 -1.249,3.023 -0.804,0.806 -1.878,1.249 -3.023,1.249 z"
   style="opacity:1;fill:#000000;fill-rule:nonzero;stroke:none;stroke-width:1;stroke-linecap:butt;stroke-linejoin:miter;stroke-miterlimit:10;stroke-dasharray:none"
   stroke-linecap="round"
   id="path1" />
	<path
   d="M 13.744,83.265 C 10.95,83.265 8.155,82.202 6.027,80.074 3.965,78.013 2.83,75.272 2.83,72.357 2.83,69.442 3.965,66.7 6.027,64.64 l 5.299,-5.3 C 17.133,52 21.071,42.586 23.032,31.358 v 0 c 0.182,-1.042 0.92,-1.886 1.927,-2.205 1.004,-0.317 2.089,-0.052 2.833,0.693 l 28.467,28.466 c 0.744,0.744 1.01,1.83 0.692,2.833 -0.318,1.007 -1.163,1.746 -2.205,1.928 -11.244,1.962 -20.669,5.909 -28.015,11.731 l -5.27,5.27 c -2.128,2.126 -4.922,3.191 -7.717,3.191 z M 25.001,31.701 C 22.979,43.285 18.893,53.017 12.857,60.627 l -0.077,0.086 -5.34,5.341 c -1.684,1.684 -2.611,3.922 -2.611,6.303 0,2.381 0.927,4.619 2.611,6.303 3.476,3.475 9.13,3.475 12.606,0 l 6.156,-6.156 0.084,0.113 c 7.488,-5.692 16.94,-9.564 28.115,-11.515 0.444,-0.077 0.597,-0.417 0.643,-0.56 0.044,-0.141 0.113,-0.502 -0.2,-0.816 L 26.378,31.259 c -0.314,-0.314 -0.675,-0.244 -0.816,-0.2 -0.143,0.046 -0.483,0.198 -0.561,0.642 z"
   style="opacity:1;fill:#000000;fill-rule:nonzero;stroke:none;stroke-width:1;stroke-linecap:butt;stroke-linejoin:miter;stroke-miterlimit:10;stroke-dasharray:none"
   stroke-linecap="round"
   id="path2" />
	<path
   d="m 48.844,47.431 c -0.256,0 -0.512,-0.098 -0.707,-0.293 -0.391,-0.391 -0.391,-1.023 0,-1.414 1.9,-1.9 1.707,-5.186 -0.432,-7.325 -2.139,-2.139 -5.424,-2.332 -7.325,-0.432 -0.391,0.391 -1.023,0.391 -1.414,0 -0.391,-0.391 -0.391,-1.023 0,-1.414 1.311,-1.313 3.097,-1.978 5.037,-1.886 1.899,0.094 3.716,0.917 5.117,2.318 2.918,2.918 3.112,7.473 0.432,10.153 -0.197,0.195 -0.452,0.293 -0.708,0.293 z"
   style="opacity:1;fill:#000000;fill-rule:nonzero;stroke:none;stroke-width:1;stroke-linecap:butt;stroke-linejoin:miter;stroke-miterlimit:10;stroke-dasharray:none"
   stroke-linecap="round"
   id="path3" />
	
	
	
	
	
	
</g></svg>
