<?xml version="1.0" encoding="UTF-8" standalone="no"?>
<svg
   version="1.1"
   width="232.18695"
   height="210.40793"
   viewBox="0 0 232.18695 210.40793"
   xml:space="preserve"
   id="svg904"
   sodipodi:docname="pencil.svg"
   inkscape:version="1.3.2 (091e20e, 2023-11-25, custom)"
   xmlns:inkscape="http://www.inkscape.org/namespaces/inkscape"
   xmlns:sodipodi="http://sodipodi.sourceforge.net/DTD/sodipodi-0.dtd"
   xmlns="http://www.w3.org/2000/svg"
   xmlns:svg="http://www.w3.org/2000/svg"><sodipodi:namedview
   id="namedview906"
   pagecolor="#ffffff"
   bordercolor="#666666"
   borderopacity="1.0"
   inkscape:pageshadow="2"
   inkscape:pageopacity="0.0"
   inkscape:pagecheckerboard="0"
   showgrid="false"
   fit-margin-top="0"
   fit-margin-left="0"
   fit-margin-right="0"
   fit-margin-bottom="0"
   inkscape:zoom="1.9414062"
   inkscape:cx="106.62375"
   inkscape:cy="123.87928"
   inkscape:window-width="1366"
   inkscape:window-height="705"
   inkscape:window-x="-8"
   inkscape:window-y="-8"
   inkscape:window-maximized="1"
   inkscape:current-layer="svg904"
   inkscape:showpageshadow="2"
   inkscape:deskcolor="#d1d1d1" />
<desc
   id="desc866">Created with Fabric.js 1.7.22</desc>
<defs
   id="defs868">
</defs>

<g
   style="fill:none;fill-rule:nonzero;stroke:none;stroke-width:0;stroke-linecap:butt;stroke-linejoin:miter;stroke-miterlimit:10;stroke-dasharray:none"
   transform="matrix(3.8364471,0,0,3.8364471,-119.37144,-8.8740213)"
   id="g6">
	<circle
   cx="46.441002"
   cy="44.030998"
   r="12.841"
   style="opacity:1;fill:#198754;fill-rule:nonzero;stroke:none;stroke-width:1;stroke-linecap:butt;stroke-linejoin:miter;stroke-miterlimit:10;stroke-dasharray:none"
   id="circle1" />
	
	
	<path
   d="M 89.564,14.004 80.411,3.076 C 80.236,2.867 79.986,2.736 79.714,2.712 79.445,2.69 79.172,2.773 78.964,2.948 L 48.01,28.876 c -0.112,0.094 -0.196,0.206 -0.257,0.329 -10e-4,0.003 -0.004,0.004 -0.005,0.007 L 40.047,44.96 c -0.178,0.365 -0.125,0.8 0.135,1.112 0.198,0.236 0.489,0.367 0.788,0.367 0.094,0 0.189,-0.013 0.282,-0.039 l 16.855,-4.821 c 0.009,-0.003 0.016,-0.01 0.025,-0.013 0.125,-0.039 0.245,-0.097 0.352,-0.187 L 89.437,15.451 c 0.434,-0.364 0.491,-1.012 0.127,-1.447 z M 48.898,31.536 56.02,40.039 42.906,43.79 Z m 9.053,7.608 -7.834,-9.352 29.379,-24.609 7.833,9.352 z"
   style="opacity:1;fill:#000000;fill-rule:nonzero;stroke:none;stroke-width:1;stroke-linecap:butt;stroke-linejoin:miter;stroke-miterlimit:10;stroke-dasharray:none"
   stroke-linecap="round"
   id="path3" />
	<path
   d="m 61.595,50.569 c -0.016,0 -0.03,0 -0.046,0 H 44.025 c -0.567,0 -1.027,-0.459 -1.027,-1.027 0,-0.568 0.46,-1.027 1.027,-1.027 h 17.528 c 0.012,0 0.025,0 0.038,0 4.174,0 8.092,-2.588 10.49,-6.932 2.763,-5.008 7.353,-7.993 12.283,-7.993 0.016,0 0.03,0 0.046,0 l 4.122,0.016 c 0.567,0.002 1.025,0.464 1.023,1.031 -0.002,0.566 -0.461,1.023 -1.027,1.023 -0.001,0 -0.003,0 -0.004,0 l -4.122,-0.016 c -4.191,-0.037 -8.12,2.576 -10.523,6.931 -2.765,5.008 -7.355,7.994 -12.284,7.994 z"
   style="opacity:1;fill:#000000;fill-rule:nonzero;stroke:none;stroke-width:1;stroke-linecap:butt;stroke-linejoin:miter;stroke-miterlimit:10;stroke-dasharray:none"
   stroke-linecap="round"
   id="path4" />
	
	
</g></svg>
