<?xml version="1.0" encoding="UTF-8" standalone="no"?>
<svg
   version="1.1"
   width="232.18695"
   height="210.40793"
   viewBox="0 0 232.18695 210.40793"
   xml:space="preserve"
   id="svg904"
   sodipodi:docname="rocket2.svg"
   inkscape:version="1.1 (c68e22c387, 2021-05-23)"
   xmlns:inkscape="http://www.inkscape.org/namespaces/inkscape"
   xmlns:sodipodi="http://sodipodi.sourceforge.net/DTD/sodipodi-0.dtd"
   xmlns="http://www.w3.org/2000/svg"
   xmlns:svg="http://www.w3.org/2000/svg"><sodipodi:namedview
   id="namedview906"
   pagecolor="#ffffff"
   bordercolor="#666666"
   borderopacity="1.0"
   inkscape:pageshadow="2"
   inkscape:pageopacity="0.0"
   inkscape:pagecheckerboard="0"
   showgrid="false"
   fit-margin-top="0"
   fit-margin-left="0"
   fit-margin-right="0"
   fit-margin-bottom="0"
   inkscape:zoom="1.9414062"
   inkscape:cx="106.62374"
   inkscape:cy="123.87928"
   inkscape:window-width="1366"
   inkscape:window-height="705"
   inkscape:window-x="-8"
   inkscape:window-y="-8"
   inkscape:window-maximized="1"
   inkscape:current-layer="svg904" />
<desc
   id="desc866">Created with Fabric.js 1.7.22</desc>
<defs
   id="defs868">
</defs>
<g
   transform="matrix(0.72,0,0,0.72,106.15032,123.72317)"
   id="g902"
   sodipodi:insensitive="true">
	<g
   style="opacity:1;fill:none;fill-rule:nonzero;stroke:none;stroke-width:0;stroke-linecap:butt;stroke-linejoin:miter;stroke-miterlimit:10;stroke-dasharray:none"
   transform="matrix(3.89,0,0,3.89,-175.05,-175.05)"
   id="g900">
	<path
   d="m 2.653,89.174 c -0.256,0 -0.512,-0.098 -0.707,-0.293 -0.391,-0.391 -0.391,-1.023 0,-1.414 L 42.189,47.224 c 0.391,-0.391 1.023,-0.391 1.414,0 0.391,0.391 0.391,1.023 0,1.414 L 3.36,88.881 c -0.196,0.195 -0.452,0.293 -0.707,0.293 z"
   style="display:none;opacity:1;fill:#000000;fill-rule:nonzero;stroke:none;stroke-width:1;stroke-linecap:butt;stroke-linejoin:miter;stroke-miterlimit:10;stroke-dasharray:none"
   stroke-linecap="round"
   id="path870" />
	<path
   d="m 79.421,42.886 c -0.42,0 -0.83,0.04 -1.234,0.098 -0.471,-2.513 -2.028,-4.641 -4.165,-5.88 -2.078,2.778 -4.36,5.624 -6.854,8.539 l 0.246,9.709 h 10.621 9.12 c 0.573,-1.155 0.903,-2.452 0.903,-3.828 0,-4.771 -3.867,-8.638 -8.637,-8.638 z"
   style="opacity:1;fill:#198754;fill-rule:nonzero;stroke:none;stroke-width:1;stroke-linecap:butt;stroke-linejoin:miter;stroke-miterlimit:10;stroke-dasharray:none"
   stroke-linecap="round"
   id="path872" />
	<path
   d="m 23.801,25.879 c 1.726,-1.726 4.122,-2.689 6.557,-2.619 l 15.765,0.4 c 2.773,-2.373 5.481,-4.546 8.131,-6.543 -2.083,-3.049 -5.585,-5.052 -9.557,-5.052 -0.563,0 -1.111,0.054 -1.653,0.132 -1.003,-5.367 -5.704,-9.43 -11.361,-9.43 -5.657,0 -10.358,4.063 -11.362,9.428 -0.541,-0.078 -1.09,-0.132 -1.653,-0.132 -6.389,0 -11.568,5.179 -11.568,11.568 0,1.844 0.443,3.581 1.21,5.128 h 12.611 z"
   style="opacity:1;fill:#198754;fill-rule:nonzero;stroke:none;stroke-width:1;stroke-linecap:butt;stroke-linejoin:miter;stroke-miterlimit:10;stroke-dasharray:none"
   stroke-linecap="round"
   id="path874" />
	<path
   d="m 66.501,30.498 c -1.764,0 -3.423,-0.687 -4.67,-1.935 -1.248,-1.248 -1.936,-2.906 -1.936,-4.67 0,-1.765 0.688,-3.423 1.936,-4.671 1.247,-1.248 2.906,-1.935 4.67,-1.935 1.765,0 3.424,0.687 4.671,1.935 1.248,1.248 1.935,2.906 1.935,4.671 0,1.764 -0.687,3.423 -1.935,4.67 v 0 c -1.247,1.248 -2.907,1.935 -4.671,1.935 z m 0,-11.211 c -1.229,0 -2.386,0.479 -3.256,1.349 -0.87,0.87 -1.35,2.026 -1.35,3.257 0,1.23 0.479,2.386 1.35,3.256 0.87,0.87 2.026,1.349 3.256,1.349 1.23,0 2.387,-0.479 3.257,-1.349 v 0 c 0.87,-0.87 1.349,-2.026 1.349,-3.256 0,-1.23 -0.479,-2.387 -1.349,-3.257 -0.871,-0.87 -2.027,-1.349 -3.257,-1.349 z"
   style="opacity:1;fill:#000000;fill-rule:nonzero;stroke:none;stroke-width:1;stroke-linecap:butt;stroke-linejoin:miter;stroke-miterlimit:10;stroke-dasharray:none"
   stroke-linecap="round"
   id="path876" />
	<path
   d="M 89.987,4.147 C 90.071,3.244 89.752,2.358 89.11,1.716 88.468,1.074 87.576,0.755 86.679,0.839 75.05,1.928 61.171,9.362 45.271,22.986 L 29.41,22.584 c -2.377,-0.071 -4.688,0.867 -6.362,2.541 l -7.246,7.246 c -0.804,0.804 -1.11,1.941 -0.817,3.04 0.293,1.099 1.123,1.933 2.221,2.231 l 11.27,3.056 7.056,7.055 c 0.391,0.391 1.023,0.391 1.414,0 0.391,-0.391 0.391,-1.023 0,-1.414 L 30.399,39.792 C 52.91,16.665 71.904,4.232 86.866,2.831 c 0.309,-0.024 0.611,0.081 0.83,0.3 0.219,0.219 0.328,0.522 0.299,0.83 -1.4,14.961 -13.835,33.956 -36.961,56.467 L 44.486,53.88 c -0.391,-0.391 -1.023,-0.391 -1.414,0 -0.391,0.391 -0.391,1.023 0,1.414 l 7.057,7.056 3.056,11.269 c 0.297,1.099 1.132,1.929 2.231,2.222 0.274,0.073 0.551,0.109 0.825,0.109 0.82,-0.001 1.611,-0.323 2.214,-0.927 L 65.7,67.778 c 1.676,-1.676 2.603,-3.994 2.542,-6.362 L 67.84,45.555 C 81.463,29.655 88.897,15.776 89.987,4.147 Z M 28.69,38.684 17.73,35.712 c -0.579,-0.157 -0.76,-0.623 -0.812,-0.815 -0.051,-0.193 -0.125,-0.688 0.299,-1.111 l 7.246,-7.246 c 1.29,-1.289 3.08,-2 4.897,-1.956 l 13.674,0.346 c -4.617,4.075 -9.401,8.663 -14.344,13.754 z m 37.552,22.783 c 0.047,1.822 -0.666,3.607 -1.956,4.897 l -7.245,7.245 c -0.424,0.424 -0.917,0.35 -1.11,0.299 -0.193,-0.052 -0.659,-0.233 -0.816,-0.813 L 52.143,62.136 c 5.09,-4.943 9.679,-9.726 13.754,-14.343 z"
   style="opacity:1;fill:#000000;fill-rule:nonzero;stroke:none;stroke-width:1;stroke-linecap:butt;stroke-linejoin:miter;stroke-miterlimit:10;stroke-dasharray:none"
   stroke-linecap="round"
   id="path878" />
	<path
   d="m 25.031,78.36 c -0.256,0 -0.512,-0.098 -0.707,-0.293 -0.391,-0.391 -0.391,-1.023 0,-1.414 L 40.67,60.306 c 0.391,-0.391 1.023,-0.391 1.414,0 0.391,0.391 0.391,1.023 0,1.414 L 25.738,78.067 c -0.196,0.195 -0.452,0.293 -0.707,0.293 z"
   style="display:none;opacity:1;fill:#198754;fill-rule:nonzero;stroke:none;stroke-width:1;stroke-linecap:butt;stroke-linejoin:miter;stroke-miterlimit:10;stroke-dasharray:none"
   stroke-linecap="round"
   id="path880" />
	<path
   d="m 8.92,70.356 c -0.256,0 -0.512,-0.098 -0.707,-0.293 -0.391,-0.391 -0.391,-1.023 0,-1.414 L 28.024,48.838 c 0.391,-0.391 1.023,-0.391 1.414,0 0.391,0.391 0.391,1.023 0,1.414 L 9.627,70.063 C 9.431,70.259 9.176,70.356 8.92,70.356 Z"
   style="display:none;opacity:1;fill:#198754;fill-rule:nonzero;stroke:none;stroke-width:1;stroke-linecap:butt;stroke-linejoin:miter;stroke-miterlimit:10;stroke-dasharray:none"
   stroke-linecap="round"
   id="path882" />
	<path
   d="m 35.868,79.835 c -0.256,0 -0.512,-0.098 -0.707,-0.293 -0.391,-0.391 -0.391,-1.023 0,-1.414 l 8.834,-8.835 c 0.391,-0.391 1.023,-0.391 1.414,0 0.391,0.391 0.391,1.023 0,1.414 l -8.834,8.835 c -0.195,0.195 -0.451,0.293 -0.707,0.293 z"
   style="display:none;opacity:1;fill:#198754;fill-rule:nonzero;stroke:none;stroke-width:1;stroke-linecap:butt;stroke-linejoin:miter;stroke-miterlimit:10;stroke-dasharray:none"
   stroke-linecap="round"
   id="path884" />
	<path
   d="m 13.346,53.618 c -0.256,0 -0.512,-0.098 -0.707,-0.293 -0.391,-0.391 -0.391,-1.023 0,-1.414 l 7.224,-7.223 c 0.391,-0.391 1.023,-0.391 1.414,0 0.391,0.391 0.391,1.023 0,1.415 l -7.224,7.223 c -0.195,0.194 -0.451,0.292 -0.707,0.292 z"
   style="display:none;opacity:1;fill:#198754;fill-rule:nonzero;stroke:none;stroke-width:1;stroke-linecap:butt;stroke-linejoin:miter;stroke-miterlimit:10;stroke-dasharray:none"
   stroke-linecap="round"
   id="path886" />
	<path
   d="m 19.829,85.689 c -0.552,0 -1,-0.447 -1,-1 v -4.256 c 0,-0.553 0.448,-1 1,-1 0.552,0 1,0.447 1,1 v 4.256 c 0,0.553 -0.447,1 -1,1 z"
   style="display:none;opacity:1;fill:#198754;fill-rule:nonzero;stroke:none;stroke-width:1;stroke-linecap:butt;stroke-linejoin:miter;stroke-miterlimit:10;stroke-dasharray:none"
   stroke-linecap="round"
   id="path888" />
	<path
   d="m 21.957,83.561 h -4.255 c -0.552,0 -1,-0.447 -1,-1 0,-0.553 0.448,-1 1,-1 h 4.255 c 0.552,0 1,0.447 1,1 0,0.553 -0.448,1 -1,1 z"
   style="display:none;opacity:1;fill:#198754;fill-rule:nonzero;stroke:none;stroke-width:1;stroke-linecap:butt;stroke-linejoin:miter;stroke-miterlimit:10;stroke-dasharray:none"
   stroke-linecap="round"
   id="path890" />
	<path
   d="m 8.137,60.955 c -0.552,0 -1,-0.447 -1,-1 v -4.256 c 0,-0.553 0.448,-1 1,-1 0.552,0 1,0.447 1,1 v 4.256 c 0,0.553 -0.447,1 -1,1 z"
   style="display:none;opacity:1;fill:#198754;fill-rule:nonzero;stroke:none;stroke-width:1;stroke-linecap:butt;stroke-linejoin:miter;stroke-miterlimit:10;stroke-dasharray:none"
   stroke-linecap="round"
   id="path892" />
	<path
   d="M 10.265,58.827 H 6.01 c -0.552,0 -1,-0.447 -1,-1 0,-0.553 0.448,-1 1,-1 h 4.255 c 0.552,0 1,0.447 1,1 0,0.553 -0.448,1 -1,1 z"
   style="display:none;opacity:1;fill:#198754;fill-rule:nonzero;stroke:none;stroke-width:1;stroke-linecap:butt;stroke-linejoin:miter;stroke-miterlimit:10;stroke-dasharray:none"
   stroke-linecap="round"
   id="path894"
   inkscape:label="path894" />
	<path
   d="M 3.194,78.277 C 2.341,78.277 1.539,77.944 0.935,77.34 0.332,76.738 0,75.935 0,75.083 c 0,-0.852 0.332,-1.655 0.935,-2.259 1.246,-1.244 3.272,-1.244 4.517,0 0.604,0.604 0.936,1.406 0.936,2.259 0,0.853 -0.332,1.654 -0.935,2.258 v 0 c -0.604,0.603 -1.406,0.936 -2.259,0.936 z m 0,-4.388 c -0.306,0 -0.611,0.116 -0.844,0.349 C 2.124,74.464 2,74.763 2,75.083 c 0,0.318 0.124,0.618 0.35,0.844 0.451,0.451 1.238,0.451 1.688,0 v 0 c 0.226,-0.226 0.35,-0.525 0.35,-0.844 0,-0.319 -0.124,-0.619 -0.35,-0.845 C 3.805,74.006 3.499,73.889 3.194,73.889 Z"
   style="display:none;opacity:1;fill:#198754;fill-rule:nonzero;stroke:none;stroke-width:1;stroke-linecap:butt;stroke-linejoin:miter;stroke-miterlimit:10;stroke-dasharray:none"
   stroke-linecap="round"
   id="path896" />
	<path
   d="m 30.658,87.236 c -0.818,0 -1.636,-0.312 -2.258,-0.934 -0.604,-0.603 -0.936,-1.405 -0.936,-2.259 0,-0.853 0.332,-1.655 0.936,-2.258 1.245,-1.244 3.271,-1.244 4.517,0 0.604,0.603 0.936,1.405 0.936,2.258 0,0.854 -0.332,1.656 -0.936,2.259 -0.623,0.623 -1.441,0.934 -2.259,0.934 z m 0,-4.385 c -0.306,0 -0.611,0.116 -0.844,0.349 -0.226,0.226 -0.35,0.525 -0.35,0.844 0,0.319 0.124,0.619 0.35,0.845 0.466,0.465 1.223,0.465 1.688,0 0.226,-0.226 0.35,-0.525 0.35,-0.845 0,-0.318 -0.124,-0.618 -0.35,-0.844 -0.232,-0.232 -0.538,-0.349 -0.844,-0.349 z"
   style="display:none;opacity:1;fill:#198754;fill-rule:nonzero;stroke:none;stroke-width:1;stroke-linecap:butt;stroke-linejoin:miter;stroke-miterlimit:10;stroke-dasharray:none"
   stroke-linecap="round"
   id="path898"
   inkscape:label="path898" />
</g>
</g>
</svg>
