<?xml version="1.0" encoding="UTF-8" standalone="no"?>
<svg
   version="1.1"
   width="232.18695"
   height="210.40793"
   viewBox="0 0 232.18695 210.40793"
   xml:space="preserve"
   id="svg904"
   sodipodi:docname="smartphone.svg"
   inkscape:version="1.3.2 (091e20e, 2023-11-25, custom)"
   xmlns:inkscape="http://www.inkscape.org/namespaces/inkscape"
   xmlns:sodipodi="http://sodipodi.sourceforge.net/DTD/sodipodi-0.dtd"
   xmlns="http://www.w3.org/2000/svg"
   xmlns:svg="http://www.w3.org/2000/svg"><sodipodi:namedview
   id="namedview906"
   pagecolor="#ffffff"
   bordercolor="#666666"
   borderopacity="1.0"
   inkscape:pageshadow="2"
   inkscape:pageopacity="0.0"
   inkscape:pagecheckerboard="0"
   showgrid="false"
   fit-margin-top="0"
   fit-margin-left="0"
   fit-margin-right="0"
   fit-margin-bottom="0"
   inkscape:zoom="1.9414062"
   inkscape:cx="106.62375"
   inkscape:cy="123.87928"
   inkscape:window-width="1366"
   inkscape:window-height="705"
   inkscape:window-x="-8"
   inkscape:window-y="-8"
   inkscape:window-maximized="1"
   inkscape:current-layer="svg904"
   inkscape:showpageshadow="2"
   inkscape:deskcolor="#d1d1d1" />
<desc
   id="desc866">Created with Fabric.js 1.7.22</desc>
<defs
   id="defs868">
</defs>

<g
   style="fill:none;fill-rule:nonzero;stroke:none;stroke-width:0;stroke-linecap:butt;stroke-linejoin:miter;stroke-miterlimit:10;stroke-dasharray:none"
   transform="matrix(4.9738328,0,0,4.9738328,-147.95646,-73.478721)"
   id="g10">
	
	
	
	<circle
   cx="56.93"
   cy="27"
   r="12"
   style="opacity:1;fill:#198754;fill-rule:nonzero;stroke:none;stroke-width:1;stroke-linecap:butt;stroke-linejoin:miter;stroke-miterlimit:10;stroke-dasharray:none"
   id="circle3" />
	<path
   d="m 63.091,40.469 c -0.385,-0.385 -0.842,-0.653 -1.328,-0.805 0.457,-1.156 0.219,-2.525 -0.715,-3.459 -0.383,-0.383 -0.84,-0.649 -1.325,-0.798 0.135,-0.357 0.204,-0.739 0.204,-1.132 0,-0.859 -0.335,-1.667 -0.942,-2.273 -0.304,-0.304 -0.654,-0.534 -1.028,-0.691 l 1.734,-1.734 c 1.254,-1.254 1.254,-3.293 0,-4.547 -1.216,-1.216 -3.334,-1.214 -4.548,0 L 44.478,35.693 c -0.241,-1.415 -1.417,-2.544 -2.912,-2.665 -0.854,-0.07 -1.688,0.199 -2.343,0.756 -0.654,0.557 -1.052,1.334 -1.121,2.19 l -0.8,9.932 c -0.024,0.216 -0.042,0.435 -0.054,0.702 -0.116,2.755 0.936,5.451 2.884,7.399 1.926,1.926 4.455,2.889 6.984,2.889 2.529,0 5.059,-0.963 6.984,-2.889 l 8.991,-8.991 c 1.254,-1.253 1.254,-3.293 0,-4.547 z m -1.414,3.134 -8.991,8.991 c -3.071,3.07 -8.068,3.071 -11.141,0 -1.553,-1.553 -2.392,-3.704 -2.298,-5.94 0.008,-0.175 0.022,-0.349 0.045,-0.555 l 0.803,-9.963 c 0.026,-0.324 0.177,-0.618 0.424,-0.828 0.222,-0.188 0.498,-0.29 0.786,-0.29 0.033,0 0.066,10e-4 0.1,0.004 0.668,0.054 1.167,0.641 1.114,1.309 l -0.146,1.803 c -0.034,0.418 0.196,0.813 0.577,0.988 0.38,0.175 0.83,0.096 1.126,-0.201 l 12.48,-12.48 c 0.474,-0.473 1.244,-0.474 1.72,0 0.229,0.229 0.356,0.535 0.356,0.86 0,0.324 -0.127,0.63 -0.356,0.859 L 54.438,32 49.726,36.711 c -0.391,0.391 -0.391,1.023 0,1.414 0.195,0.195 0.451,0.293 0.707,0.293 0.256,0 0.512,-0.098 0.707,-0.293 l 4.712,-4.711 c 0.459,-0.459 1.26,-0.459 1.719,0 0.23,0.229 0.356,0.535 0.356,0.859 0,0.325 -0.126,0.63 -0.356,0.86 l -1.07,1.071 -3.641,3.641 c -0.391,0.391 -0.391,1.023 0,1.414 0.195,0.195 0.451,0.293 0.707,0.293 0.256,0 0.512,-0.098 0.707,-0.293 l 3.641,-3.641 c 0.474,-0.473 1.244,-0.475 1.72,0 0.474,0.474 0.474,1.246 0,1.72 l -1.104,1.104 c -0.004,0.003 -0.007,0.007 -0.011,0.011 l -0.095,0.095 -2.431,2.431 c -0.391,0.391 -0.391,1.024 0,1.414 0.195,0.195 0.451,0.293 0.707,0.293 0.256,0 0.512,-0.098 0.707,-0.293 l 2.431,-2.431 0.1,-0.1 c 0.225,-0.222 0.526,-0.343 0.851,-0.343 0.004,0 0.007,0 0.01,0 0.334,0.002 0.646,0.132 0.879,0.364 0.472,0.474 0.472,1.245 -0.002,1.72 z"
   style="opacity:1;fill:#000000;fill-rule:nonzero;stroke:none;stroke-width:1;stroke-linecap:butt;stroke-linejoin:miter;stroke-miterlimit:10;stroke-dasharray:none"
   stroke-linecap="round"
   id="path4" />
	
	
	
	
	
	
</g></svg>
