<?xml version="1.0" standalone="no"?>
<!DOCTYPE svg PUBLIC "-//W3C//DTD SVG 20010904//EN"
 "http://www.w3.org/TR/2001/REC-SVG-20010904/DTD/svg10.dtd">
<svg version="1.0" xmlns="http://www.w3.org/2000/svg"
 width="640.000000pt" height="640.000000pt" viewBox="0 0 640.000000 640.000000"
 preserveAspectRatio="xMidYMid meet">

<g transform="translate(0.000000,640.000000) scale(0.100000,-0.100000)"
fill="#000000" stroke="none">
<path d="M0 5795 l0 -605 605 0 605 0 0 605 0 605 -605 0 -605 0 0 -605z
m1040 0 l0 -435 -435 0 -435 0 0 435 0 435 435 0 435 0 0 -435z"/>
<path d="M350 5795 l0 -255 255 0 255 0 0 255 0 255 -255 0 -255 0 0 -255z"/>
<path d="M1560 6315 l0 -85 85 0 85 0 0 -90 0 -90 -172 0 -173 0 2 -82 1 -83
86 -3 86 -3 0 -84 0 -85 85 0 85 0 0 -85 0 -85 85 0 85 0 0 85 0 85 88 0 87 0
-3 85 -3 85 -85 0 -85 0 3 88 3 87 85 0 85 0 3 -87 3 -88 84 0 85 0 0 -85 0
-85 85 0 85 0 0 -85 0 -85 85 0 85 0 0 85 0 85 -85 0 -85 0 0 85 0 85 90 0 90
0 0 -85 0 -85 85 0 85 0 0 -85 0 -85 85 0 85 0 0 -90 0 -90 -85 0 -85 0 0 85
0 85 -85 0 -85 0 0 -85 0 -85 85 0 85 0 0 -85 0 -85 -85 0 -84 0 -3 -87 -3
-88 -87 -3 -88 -3 0 -84 0 -85 90 0 90 0 0 -85 0 -85 85 0 85 0 0 -85 0 -85
-85 0 -85 0 0 -260 0 -260 85 0 85 0 0 -85 0 -85 85 0 85 0 0 85 0 85 -85 0
-85 0 0 85 0 85 85 0 85 0 0 85 0 85 -85 0 -85 0 0 90 0 90 258 0 257 0 -3 85
-3 85 -85 0 -84 0 0 85 0 85 -85 0 -85 0 0 85 0 85 -85 0 -85 0 0 90 0 90 85
0 85 0 0 -85 0 -85 85 0 85 0 0 85 0 85 88 0 87 0 0 82 0 83 88 3 87 3 0 -86
0 -85 85 0 85 0 0 -85 0 -85 85 0 85 0 0 85 0 85 -85 0 -85 0 0 85 0 85 85 0
84 0 3 88 3 87 88 3 87 3 0 84 0 85 -90 0 -90 0 0 85 0 85 -85 0 -86 0 3 88 3
87 82 3 82 3 3 82 3 82 88 3 87 3 0 -86 0 -85 85 0 85 0 0 85 0 85 85 0 85 0
0 85 0 85 -85 0 -85 0 0 -85 0 -85 -85 0 -85 0 0 85 0 85 -175 0 -175 0 0 -85
0 -85 -85 0 -85 0 0 -90 0 -90 -85 0 -85 0 0 -85 0 -85 170 0 170 0 0 -175 0
-175 -170 0 -170 0 0 -85 0 -85 -90 0 -91 0 3 88 3 87 82 3 82 3 3 80 c2 45 1
83 -1 85 -2 2 -42 4 -88 4 l-83 0 0 85 0 85 -85 0 -85 0 0 85 0 85 -345 0
-345 0 0 175 0 175 -85 0 -85 0 0 -85 0 -85 -175 0 -175 0 0 85 0 85 -85 0
-85 0 0 -85z m1380 -520 l0 -85 -85 0 -85 0 0 85 0 85 85 0 85 0 0 -85z m175
-520 l0 -80 -87 -3 -88 -3 0 86 0 86 88 -3 87 -3 0 -80z m-175 -520 l0 -85
-85 0 -85 0 0 85 0 85 85 0 85 0 0 -85z"/>
<path d="M2420 6315 l0 -85 85 0 85 0 0 85 0 85 -85 0 -85 0 0 -85z"/>
<path d="M2770 6315 l0 -85 85 0 85 0 0 85 0 85 -85 0 -85 0 0 -85z"/>
<path d="M4670 6140 l0 -260 -85 0 -85 0 0 85 0 85 -175 0 -175 0 0 -85 0 -85
175 0 175 0 0 -85 0 -85 -175 0 -175 0 0 -85 0 -85 175 0 175 0 0 85 0 85 85
0 85 0 0 85 0 85 85 0 85 0 0 -345 0 -345 -85 0 -85 0 0 170 0 170 -85 0 -85
0 0 -170 0 -170 -85 0 -85 0 0 -85 0 -85 340 0 340 0 2 430 3 430 -87 0 -88 0
0 175 0 175 88 0 87 0 -3 85 -3 85 -170 0 -169 0 0 -260z"/>
<path d="M5190 5795 l0 -605 605 0 605 0 0 605 0 605 -605 0 -605 0 0 -605z
m1040 0 l0 -435 -435 0 -435 0 0 435 0 435 435 0 435 0 0 -435z"/>
<path d="M5540 5795 l0 -255 255 0 255 0 0 255 0 255 -255 0 -255 0 0 -255z"/>
<path d="M3120 6228 c-1 -2 -2 -40 -3 -86 l-2 -82 82 0 81 0 4 81 c2 44 1 83
-1 85 -5 4 -161 6 -161 2z"/>
<path d="M3810 5965 l0 -85 85 0 85 0 0 85 0 85 -85 0 -85 0 0 -85z"/>
<path d="M1560 5445 l0 -85 -87 0 -88 0 0 -172 0 -173 -347 -3 -348 -2 0 -85
0 -85 435 0 435 0 0 -85 0 -85 255 0 255 0 0 170 0 169 -82 3 -83 3 -3 173 -2
172 -85 0 -85 0 0 85 0 85 -85 0 -85 0 0 -85z m170 -170 l0 -85 -85 0 -85 0 0
85 0 85 85 0 85 0 0 -85z m0 -345 l0 -90 -85 0 -85 0 0 90 0 90 85 0 85 0 0
-90z"/>
<path d="M2250 5445 l0 -85 -85 0 -85 0 0 -170 0 -170 170 0 170 0 0 85 0 85
85 0 85 0 0 85 0 85 -85 0 -85 0 0 85 0 85 -85 0 -85 0 0 -85z m170 -170 l0
-85 -85 0 -85 0 0 85 0 85 85 0 85 0 0 -85z"/>
<path d="M3980 5445 l0 -85 -85 0 -85 0 0 -85 0 -85 85 0 86 0 -3 -87 -3 -88
-82 -3 -83 -3 0 -169 0 -170 170 0 170 0 0 85 0 85 85 0 85 0 0 85 0 84 -82 3
-83 3 -3 88 -3 87 86 0 85 0 0 85 0 85 -85 0 -85 0 0 85 0 85 -85 0 -85 0 0
-85z m170 -170 l0 -85 -85 0 -85 0 0 85 0 85 85 0 85 0 0 -85z"/>
<path d="M5188 5012 l-168 -2 0 -85 0 -85 85 0 85 0 0 -255 0 -255 85 0 85 0
0 170 0 170 85 0 85 0 0 85 0 85 -85 0 -84 0 -3 88 -3 87 -167 -3z"/>
<path d="M5963 5013 l-83 -4 0 -84 0 -85 85 0 85 0 0 90 c0 50 -1 89 -2 88 -2
-1 -40 -4 -85 -5z"/>
<path d="M0 4925 l0 -85 85 0 85 0 0 -85 0 -85 -85 0 -85 0 0 -85 0 -85 85 0
85 0 0 85 0 85 175 0 175 0 0 -85 0 -85 170 0 170 0 0 85 0 85 -170 0 -170 0
0 170 0 170 -260 0 -260 0 0 -85z"/>
<path d="M3120 4925 l0 -85 85 0 85 0 0 -85 0 -85 170 0 170 0 0 -170 0 -169
88 -3 87 -3 3 -172 2 -173 170 0 170 0 0 -85 0 -85 175 0 175 0 0 -90 0 -90
85 0 85 0 0 90 0 90 173 -2 172 -3 3 -87 3 -88 -91 0 -90 0 0 -85 0 -85 -170
0 -170 0 0 -85 0 -85 170 0 170 0 0 85 0 85 175 0 175 0 0 -85 0 -85 85 0 85
0 0 85 0 85 85 0 85 0 2 173 3 172 88 3 87 3 0 84 0 85 85 0 85 0 0 -85 0 -85
85 0 85 0 0 345 0 345 90 0 90 0 -2 -347 -3 -348 -82 -3 -82 -3 -3 -82 -3 -82
-87 -3 -88 -3 0 86 0 85 -85 0 -85 0 0 -85 0 -85 85 0 85 0 0 -254 0 -255 85
-3 85 -3 0 173 0 172 90 0 90 0 0 85 0 85 85 0 85 0 0 435 0 435 -85 0 -85 0
0 170 0 170 -85 0 -85 0 0 -85 0 -85 -90 0 -90 0 0 -85 0 -85 -170 0 -169 0
-3 -87 -3 -88 -87 -3 -88 -3 0 -169 0 -170 -85 0 -85 0 0 170 0 170 -175 0
-175 0 0 90 0 90 88 0 87 0 0 85 0 85 -87 0 -88 0 0 85 0 85 -170 0 -170 0 0
-85 0 -85 -85 0 -85 0 0 -85 0 -85 85 0 85 0 0 85 0 85 170 0 170 0 0 -85 0
-85 -85 0 -85 0 0 -260 0 -260 -260 0 -260 0 0 170 0 170 -85 0 -85 0 0 90 0
90 -90 0 -90 0 0 85 0 85 -85 0 -85 0 0 170 0 170 -255 0 -255 0 0 -85z m2760
-685 l0 -90 -85 0 -85 0 0 90 0 90 85 0 85 0 0 -90z m-860 -175 l0 -85 -90 0
-90 0 0 85 0 85 90 0 90 0 0 -85z"/>
<path d="M1040 4585 l0 -85 170 0 170 0 0 85 0 85 -170 0 -170 0 0 -85z"/>
<path d="M2250 4585 l0 -85 85 0 85 0 0 85 0 85 -85 0 -85 0 0 -85z"/>
<path d="M1560 4415 l0 -85 85 0 85 0 0 85 0 85 -85 0 -85 0 0 -85z"/>
<path d="M1900 4415 l0 -85 85 0 85 0 0 85 0 85 -85 0 -85 0 0 -85z"/>
<path d="M4150 4415 l0 -85 85 0 85 0 0 85 0 85 -85 0 -85 0 0 -85z"/>
<path d="M170 4235 l0 -85 84 0 85 0 3 85 3 85 -87 0 -88 0 0 -85z"/>
<path d="M870 4235 l0 -85 170 0 170 0 0 -85 0 -85 -170 0 -170 0 0 -85 0 -85
255 0 255 0 0 85 0 85 175 0 175 0 0 -85 0 -85 173 -2 172 -3 3 -87 3 -88 169
0 170 0 0 -170 0 -169 88 -3 87 -3 3 -85 3 -85 84 3 85 3 0 170 0 169 85 0 85
0 0 85 0 86 88 -3 87 -3 0 -83 0 -82 88 0 87 0 0 -85 0 -85 85 0 85 0 0 85 0
85 85 0 85 0 0 85 0 85 90 0 90 0 0 -85 0 -85 85 0 86 0 -3 -87 -3 -88 -83 0
-82 0 0 -82 0 -82 170 -3 170 -3 0 88 0 87 85 0 85 0 0 170 0 170 -85 0 -85 0
0 85 0 85 -172 2 -173 3 -3 88 -3 87 -84 0 -85 0 0 170 0 170 -257 0 -258 0 2
-82 1 -83 86 -3 86 -3 0 -84 0 -85 170 0 170 0 0 -175 0 -175 -260 0 -260 0 0
85 0 85 -85 0 -85 0 0 -85 0 -85 -85 0 -85 0 0 85 0 84 -87 3 -88 3 -3 88 -3
87 -84 0 -85 0 0 85 0 85 -85 0 -85 0 0 85 0 85 -85 0 -85 0 0 -85 0 -85 -90
0 -90 0 0 85 0 85 -85 0 -85 0 0 -85 0 -85 -175 0 -175 0 0 85 0 85 -255 0
-255 0 0 -85z m1030 -170 l0 -85 -85 0 -85 0 0 85 0 85 85 0 85 0 0 -85z m520
-175 l0 -90 -85 0 -85 0 0 90 0 90 85 0 85 0 0 -90z"/>
<path d="M4330 4235 l0 -85 85 0 85 0 0 85 0 85 -85 0 -85 0 0 -85z"/>
<path d="M350 4065 l0 -85 170 0 170 0 0 85 0 85 -170 0 -170 0 0 -85z"/>
<path d="M3119 3976 c-2 -2 -3 -41 -1 -85 l4 -81 81 0 82 0 -3 85 -3 85 -78 0
c-43 0 -80 -2 -82 -4z"/>
<path d="M0 3545 l0 -255 85 0 85 0 0 255 0 255 -85 0 -85 0 0 -255z"/>
<path d="M690 3460 l0 -170 85 0 85 0 0 85 0 85 175 0 175 0 0 -85 0 -85 175
0 175 0 0 -90 0 -90 -87 0 -88 0 0 -82 0 -83 -173 -3 -173 -2 3 87 3 88 83 0
82 0 0 82 0 82 -85 3 -85 3 0 -87 0 -88 -175 0 -175 0 0 85 0 85 -85 0 -85 0
0 -170 0 -170 -90 0 -90 0 0 170 0 170 -85 0 -85 0 0 -85 0 -85 -85 0 -85 0 0
-85 0 -85 85 0 85 0 0 -85 0 -85 -85 0 -85 0 0 -85 0 -85 85 0 85 0 0 85 0 85
175 0 175 0 0 -175 0 -175 85 0 85 0 0 175 0 175 -85 0 -85 0 0 85 0 85 260 0
260 0 0 -85 0 -85 -85 0 -85 0 0 -85 0 -85 85 0 85 0 0 85 0 85 260 0 260 0 2
173 3 172 83 3 82 3 0 84 0 85 173 0 172 0 -3 170 -3 170 -169 0 -170 0 0 -85
0 -85 -260 0 -260 0 0 85 0 85 -260 0 -260 0 0 -170z"/>
<path d="M350 3375 l0 -85 85 0 85 0 0 85 0 85 -85 0 -85 0 0 -85z"/>
<path d="M5540 3200 l0 -260 -90 0 -90 0 0 -170 0 -169 88 -3 87 -3 3 -87 3
-88 84 0 85 0 0 -85 0 -85 -85 0 -85 0 0 -85 0 -85 170 0 170 0 0 85 0 86 88
-3 87 -3 0 -85 0 -85 -87 -3 -88 -3 0 -84 0 -85 175 0 175 0 0 345 0 345 -175
0 -175 0 0 -85 0 -85 -85 0 -85 0 0 90 0 90 85 0 85 0 0 85 0 85 85 0 85 0 0
85 0 85 -170 0 -170 0 0 260 0 260 -85 0 -85 0 0 -260z"/>
<path d="M2250 3200 l0 -85 85 0 85 0 0 82 0 82 -85 3 -85 3 0 -85z"/>
<path d="M3117 3283 c-1 -1 -1 -37 1 -81 l3 -81 81 -3 c44 -2 80 -2 81 -1 1 1
1 37 -1 81 l-3 81 -81 3 c-44 2 -80 2 -81 1z"/>
<path d="M4923 3282 l-83 -3 0 -79 0 -80 84 0 84 0 4 81 c2 45 1 82 -2 82 -3
1 -42 1 -87 -1z"/>
<path d="M1900 3025 l0 -85 84 0 85 0 3 85 3 85 -87 0 -88 0 0 -85z"/>
<path d="M2770 3025 l0 -85 -85 0 -85 0 -2 -172 -3 -173 -87 -3 -88 -3 0 -84
0 -85 -85 0 -85 0 0 90 0 90 85 0 85 0 0 85 0 85 -85 0 -85 0 0 85 0 85 -85 0
-85 0 0 -85 0 -85 -175 0 -175 0 0 -90 0 -90 -345 0 -345 0 0 -85 0 -85 -85 0
-85 0 0 -170 0 -170 170 0 170 0 0 85 0 85 -85 0 -85 0 0 85 0 85 175 0 176 0
-3 -170 -3 -170 88 0 87 0 0 85 0 85 85 0 85 0 0 85 0 85 175 0 175 0 0 -85 0
-85 170 0 170 0 0 -175 0 -175 -85 0 -85 0 0 -85 0 -85 85 0 85 0 0 85 0 85
175 0 175 0 0 -85 0 -85 -85 0 -85 0 0 -260 0 -260 85 0 85 0 0 -85 0 -85 -90
0 -90 0 0 85 0 85 -85 0 -85 0 0 85 0 85 -85 0 -85 0 0 90 0 90 -85 0 -84 0
-3 -87 -3 -88 -87 -3 -88 -3 0 -84 0 -85 -85 0 -85 0 0 85 0 85 -172 0 -173 0
2 -342 2 -343 86 -3 85 -3 0 -84 0 -84 -85 -3 c-47 -2 -85 -6 -85 -10 0 -5 0
-120 0 -258 l0 -250 85 0 85 0 0 260 0 260 85 0 85 0 0 -85 0 -85 85 0 85 0 0
85 0 85 85 0 85 0 0 170 0 170 -85 0 -85 0 0 -85 0 -85 -170 0 -170 0 0 260 0
260 85 0 85 0 0 -85 0 -85 175 0 175 0 0 -85 0 -85 170 0 170 0 0 -175 0 -175
-85 0 -85 0 0 -85 0 -85 85 0 85 0 0 85 0 85 175 0 175 0 0 -85 0 -85 170 0
170 0 0 85 0 85 90 0 90 0 0 -85 0 -85 170 0 170 0 0 85 0 85 -85 0 -85 0 0
85 0 85 85 0 85 0 0 85 0 85 -85 0 -85 0 0 90 0 90 433 -2 432 -3 3 -82 3 -83
84 0 85 0 0 -90 0 -90 170 0 170 0 0 -85 0 -85 175 0 175 0 0 -90 0 -90 -85 0
-85 0 0 -85 0 -85 -90 0 -90 0 0 -85 0 -85 85 0 84 0 3 83 3 82 258 3 257 2 0
85 0 84 -82 3 -83 3 -3 172 -2 173 175 0 175 0 0 -85 0 -85 -85 0 -85 0 0 -85
0 -85 85 0 85 0 0 85 0 85 85 0 85 0 0 85 0 85 91 0 90 0 -3 -85 -3 -85 88 0
88 0 -3 -87 -3 -88 -85 -3 -85 -3 3 -84 3 -85 85 0 84 0 0 -85 0 -85 85 0 85
0 0 260 0 260 -85 0 -85 0 0 85 0 85 85 0 85 0 0 85 0 85 -85 0 -85 0 0 175 0
175 85 0 85 0 0 260 0 260 -85 0 -85 0 0 -85 0 -85 -85 0 -84 0 -3 -87 -3 -88
-87 -3 -88 -3 0 -84 0 -85 90 0 90 0 -2 -173 -3 -172 -172 -3 -173 -2 0 265 0
265 85 0 85 0 0 85 0 85 85 0 85 0 0 85 0 85 -170 0 -170 0 0 85 0 85 -85 0
-85 0 0 -85 0 -85 85 0 85 0 0 -85 0 -85 -605 0 -605 0 0 85 0 85 -85 0 -85 0
0 -85 0 -85 85 0 85 0 0 -90 0 -90 -85 0 -85 0 0 -85 0 -85 -90 0 -91 0 3 88
3 87 83 3 82 3 0 84 0 85 -85 0 -85 0 0 85 0 85 85 0 85 0 0 85 0 85 -85 0
-85 0 0 90 0 90 85 0 85 0 0 85 0 85 -85 0 -85 0 0 85 0 85 85 0 85 0 0 85 0
85 -85 0 -85 0 0 -85 0 -85 -85 0 -85 0 0 85 0 85 -85 0 -85 0 0 -85 0 -85 85
0 85 0 0 -85 0 -85 -85 0 -85 0 0 -85 0 -85 85 0 85 0 0 -90 0 -90 -85 0 -85
0 0 -85 0 -85 85 0 85 0 0 -85 0 -85 -85 0 -85 0 0 -85 0 -84 83 -3 82 -3 3
-87 3 -88 -91 0 -90 0 0 85 0 85 -85 0 -85 0 0 -85 0 -85 -85 0 -85 0 0 90 0
90 85 0 85 0 0 85 0 85 85 0 85 0 0 85 0 85 -85 0 -85 0 0 85 0 85 -85 0 -85
0 0 90 0 90 85 0 85 0 0 85 0 85 85 0 85 0 0 85 0 85 -85 0 -85 0 0 -85 0 -85
-260 0 -260 0 0 85 0 85 -170 0 -170 0 0 260 0 260 173 -2 172 -3 0 -83 0 -82
88 0 88 0 -3 -87 -3 -88 -85 -3 -85 -3 3 -84 3 -85 170 0 169 0 0 90 0 90 85
0 85 0 0 85 0 85 -172 2 -173 3 0 83 0 82 -87 0 -88 0 0 85 0 85 -170 0 -170
0 0 -85z m0 -690 l0 -85 173 -2 172 -3 0 -80 0 -80 85 -5 85 -5 3 -87 3 -88
-88 0 -88 0 3 -85 3 -85 79 0 79 0 3 83 3 82 88 3 87 3 0 -86 0 -85 85 0 85 0
0 -85 0 -85 -85 0 -85 0 0 85 0 85 -85 0 -85 0 0 -85 0 -85 -85 0 -85 0 -2
-172 -3 -173 -172 -3 -173 -2 0 90 0 91 85 -3 85 -3 0 88 0 87 -85 0 -85 0 0
85 0 85 85 0 85 0 0 85 0 85 -85 0 -85 0 0 175 0 175 -90 0 -90 0 0 85 0 85
90 0 90 0 0 -85z m1380 -520 l0 -85 -85 0 -85 0 0 85 0 85 85 0 85 0 0 -85z
m690 -690 l0 -265 -85 0 -85 0 0 90 0 90 -85 0 -85 0 0 85 0 85 85 0 85 0 0
83 c0 46 3 87 7 90 3 4 42 7 85 7 l78 0 0 -265z m695 0 l0 -260 -260 0 -260 0
-3 250 c-1 137 0 255 3 262 3 11 60 13 262 11 l258 -3 0 -260z m-3115 0 l0
-85 -85 0 -85 0 0 85 0 85 85 0 85 0 0 -85z m1040 0 l0 -85 -170 0 -170 0 -2
-257 -3 -258 -172 -3 -173 -2 0 85 0 85 85 0 85 0 0 85 0 85 -85 0 -85 0 0 90
0 90 170 0 170 0 0 85 0 85 175 0 175 0 0 -85z"/>
<path d="M2940 1645 l0 -85 85 0 85 0 0 85 0 85 -85 0 -85 0 0 -85z"/>
<path d="M5190 1125 l0 -85 85 0 85 0 0 85 0 85 -85 0 -85 0 0 -85z"/>
<path d="M3460 3025 l0 -85 170 0 170 0 0 85 0 85 -170 0 -170 0 0 -85z"/>
<path d="M4328 3025 l3 -85 -260 0 -261 0 0 -85 0 -85 85 0 85 0 0 -85 0 -85
85 0 85 0 0 85 0 85 175 0 175 0 0 -175 0 -175 -85 0 -85 0 0 -85 0 -85 85 0
85 0 0 -85 0 -85 85 0 85 0 0 -175 0 -175 85 0 85 0 0 85 0 85 175 0 175 0 0
-85 0 -85 85 0 85 0 0 85 0 85 -85 0 -85 0 0 85 0 84 -87 3 -88 3 -1 85 -2 85
-171 3 -171 2 0 175 0 175 85 0 85 0 0 -90 0 -91 88 3 c48 2 86 6 85 11 -2 4
-3 120 -3 257 l0 250 -85 0 -85 0 0 85 0 85 -257 0 -258 0 3 -85z m342 -170
l0 -85 -85 0 -85 0 0 85 0 85 85 0 85 0 0 -85z"/>
<path d="M5020 3025 l0 -85 85 0 85 0 0 85 0 85 -85 0 -85 0 0 -85z"/>
<path d="M6230 2770 l0 -170 85 0 85 0 0 170 0 170 -85 0 -85 0 0 -170z"/>
<path d="M170 2420 l0 -170 88 0 87 0 0 170 0 170 -87 0 -88 0 0 -170z"/>
<path d="M5190 2505 l0 -85 85 0 85 0 0 -85 0 -85 -85 0 -85 0 0 -85 0 -85 85
0 85 0 0 85 0 85 85 0 85 0 0 85 0 85 -85 0 -85 0 0 85 0 85 -85 0 -85 0 0
-85z"/>
<path d="M520 2160 l0 -90 -85 0 -85 0 0 -170 0 -170 85 0 85 0 0 -85 0 -85
-85 0 -85 0 0 -87 0 -88 85 3 85 3 0 85 0 84 85 0 85 0 0 85 0 85 260 0 260 0
0 85 0 85 -175 0 -175 0 0 85 0 84 -82 3 -83 3 -3 88 -3 87 -84 0 -85 0 0 -90z"/>
<path d="M1900 2160 l0 -90 -85 0 -85 0 0 -85 0 -85 -85 0 -85 0 0 -85 0 -85
-84 0 -85 0 -3 -85 -3 -85 173 0 172 0 0 -85 0 -85 85 0 85 0 0 85 0 85 85 0
85 0 0 85 0 85 -85 0 -85 0 0 -85 0 -85 -85 0 -85 0 0 170 0 170 170 0 170 0
0 175 0 175 -85 0 -85 0 0 -90z"/>
<path d="M0 1815 l0 -85 85 0 85 0 0 -85 0 -85 -85 0 -85 0 0 -84 0 -85 85 -3
85 -3 0 88 0 87 85 0 85 0 0 85 0 85 -85 0 -85 0 0 85 0 85 -85 0 -85 0 0 -85z"/>
<path d="M870 1473 l0 -88 170 0 170 0 0 88 0 87 -170 0 -170 0 0 -87z"/>
<path d="M0 605 l0 -605 605 0 605 0 0 605 0 605 -605 0 -605 0 0 -605z m1040
0 l0 -435 -435 0 -435 0 0 435 0 435 435 0 435 0 0 -435z"/>
<path d="M350 605 l0 -255 255 0 255 0 0 255 0 255 -255 0 -255 0 0 -255z"/>
<path d="M3810 775 l0 -85 85 0 85 0 0 -85 0 -85 -85 0 -85 0 0 -85 0 -85 85
0 85 0 0 85 0 85 85 0 85 0 0 -85 0 -85 175 0 175 0 0 -90 0 -90 85 0 85 0 0
175 0 175 -260 0 -260 0 0 85 0 85 85 0 85 0 0 85 0 85 -85 0 -85 0 0 -85 0
-85 -85 0 -85 0 0 85 0 85 -85 0 -85 0 0 -85z"/>
<path d="M1900 255 l0 -85 84 0 85 0 3 85 3 85 -87 0 -88 0 0 -85z"/>
<path d="M2600 170 l0 -170 170 0 170 0 0 85 0 85 -85 0 -85 0 0 85 0 85 -85
0 -85 0 0 -170z"/>
<path d="M3120 170 l0 -170 255 0 255 0 0 85 0 85 85 0 85 0 0 85 0 85 -85 0
-85 0 0 -85 0 -85 -172 2 -173 3 -3 83 -3 82 -79 0 -80 0 0 -170z"/>
<path d="M3980 255 l0 -85 -85 0 -85 0 0 -85 0 -85 255 0 255 0 0 85 0 85 -85
0 -85 0 0 85 0 85 -85 0 -85 0 0 -85z"/>
<path d="M2080 85 l0 -85 85 0 85 0 0 85 0 85 -85 0 -85 0 0 -85z"/>
<path d="M5540 85 l0 -85 85 0 85 0 0 85 0 85 -85 0 -85 0 0 -85z"/>
<path d="M5880 85 l0 -85 85 0 85 0 0 85 0 85 -85 0 -85 0 0 -85z"/>
</g>
</svg>
